G04 #@! TF.GenerationSoftware,KiCad,Pcbnew,(6.0.0-rc1-dev-113-g3868f21)*
G04 #@! TF.CreationDate,2018-09-11T18:01:50-04:00*
G04 #@! TF.ProjectId,CNCKeypad,434E434B65797061642E6B696361645F,rev?*
G04 #@! TF.SameCoordinates,Original*
G04 #@! TF.FileFunction,Copper,L2,Bot,Signal*
G04 #@! TF.FilePolarity,Positive*
%FSLAX46Y46*%
G04 Gerber Fmt 4.6, Leading zero omitted, Abs format (unit mm)*
G04 Created by KiCad (PCBNEW (6.0.0-rc1-dev-113-g3868f21)) date Tuesday, September 11, 2018 at 06:01:50 PM*
%MOMM*%
%LPD*%
G01*
G04 APERTURE LIST*
G04 #@! TA.AperFunction,ComponentPad*
%ADD10O,1.700000X1.700000*%
G04 #@! TD*
G04 #@! TA.AperFunction,ComponentPad*
%ADD11R,1.700000X1.700000*%
G04 #@! TD*
G04 #@! TA.AperFunction,ComponentPad*
%ADD12C,2.200000*%
G04 #@! TD*
G04 #@! TA.AperFunction,Conductor*
%ADD13C,0.100000*%
G04 #@! TD*
G04 #@! TA.AperFunction,SMDPad,CuDef*
%ADD14C,0.975000*%
G04 #@! TD*
G04 #@! TA.AperFunction,ComponentPad*
%ADD15R,1.800000X1.800000*%
G04 #@! TD*
G04 #@! TA.AperFunction,ComponentPad*
%ADD16C,1.800000*%
G04 #@! TD*
G04 #@! TA.AperFunction,Conductor*
%ADD17C,0.500000*%
G04 #@! TD*
G04 APERTURE END LIST*
D10*
G04 #@! TO.P,J6,6*
G04 #@! TO.N,Net-(J6-Pad6)*
X115062000Y-58420000D03*
G04 #@! TO.P,J6,5*
G04 #@! TO.N,Net-(J6-Pad5)*
X117602000Y-58420000D03*
G04 #@! TO.P,J6,4*
G04 #@! TO.N,Net-(J6-Pad4)*
X120142000Y-58420000D03*
G04 #@! TO.P,J6,3*
G04 #@! TO.N,Net-(J6-Pad3)*
X122682000Y-58420000D03*
G04 #@! TO.P,J6,2*
G04 #@! TO.N,Net-(J6-Pad2)*
X125222000Y-58420000D03*
D11*
G04 #@! TO.P,J6,1*
G04 #@! TO.N,Net-(J6-Pad1)*
X127762000Y-58420000D03*
G04 #@! TD*
D12*
G04 #@! TO.P,SW6,2*
G04 #@! TO.N,Net-(D6-Pad2)*
X118364000Y-67818000D03*
G04 #@! TO.P,SW6,1*
G04 #@! TO.N,Net-(J6-Pad5)*
X124714000Y-65278000D03*
G04 #@! TD*
G04 #@! TO.P,SW1,2*
G04 #@! TO.N,Net-(D1-Pad2)*
X99314000Y-67818000D03*
G04 #@! TO.P,SW1,1*
G04 #@! TO.N,Net-(J6-Pad6)*
X105664000Y-65278000D03*
G04 #@! TD*
G04 #@! TO.P,SW12,2*
G04 #@! TO.N,Net-(D12-Pad2)*
X137414000Y-86868000D03*
G04 #@! TO.P,SW12,1*
G04 #@! TO.N,Net-(J6-Pad4)*
X143764000Y-84328000D03*
G04 #@! TD*
G04 #@! TO.P,SW11,2*
G04 #@! TO.N,Net-(D11-Pad2)*
X137414000Y-67818000D03*
G04 #@! TO.P,SW11,1*
G04 #@! TO.N,Net-(J6-Pad4)*
X143764000Y-65278000D03*
G04 #@! TD*
G04 #@! TO.P,SW13,2*
G04 #@! TO.N,Net-(D13-Pad2)*
X137414000Y-105918000D03*
G04 #@! TO.P,SW13,1*
G04 #@! TO.N,Net-(J6-Pad4)*
X143764000Y-103378000D03*
G04 #@! TD*
G04 #@! TO.P,SW2,2*
G04 #@! TO.N,Net-(D2-Pad2)*
X99314000Y-86868000D03*
G04 #@! TO.P,SW2,1*
G04 #@! TO.N,Net-(J6-Pad6)*
X105664000Y-84328000D03*
G04 #@! TD*
G04 #@! TO.P,SW3,2*
G04 #@! TO.N,Net-(D3-Pad2)*
X99314000Y-105918000D03*
G04 #@! TO.P,SW3,1*
G04 #@! TO.N,Net-(J6-Pad6)*
X105664000Y-103378000D03*
G04 #@! TD*
G04 #@! TO.P,SW4,2*
G04 #@! TO.N,Net-(D4-Pad2)*
X99314000Y-124968000D03*
G04 #@! TO.P,SW4,1*
G04 #@! TO.N,Net-(J6-Pad6)*
X105664000Y-122428000D03*
G04 #@! TD*
G04 #@! TO.P,SW5,2*
G04 #@! TO.N,Net-(D5-Pad2)*
X99314000Y-144018000D03*
G04 #@! TO.P,SW5,1*
G04 #@! TO.N,Net-(J6-Pad6)*
X105664000Y-141478000D03*
G04 #@! TD*
G04 #@! TO.P,SW7,2*
G04 #@! TO.N,Net-(D7-Pad2)*
X118364000Y-86868000D03*
G04 #@! TO.P,SW7,1*
G04 #@! TO.N,Net-(J6-Pad5)*
X124714000Y-84328000D03*
G04 #@! TD*
G04 #@! TO.P,SW8,2*
G04 #@! TO.N,Net-(D8-Pad2)*
X118364000Y-105918000D03*
G04 #@! TO.P,SW8,1*
G04 #@! TO.N,Net-(J6-Pad5)*
X124714000Y-103378000D03*
G04 #@! TD*
G04 #@! TO.P,SW9,2*
G04 #@! TO.N,Net-(D9-Pad2)*
X118364000Y-124968000D03*
G04 #@! TO.P,SW9,1*
G04 #@! TO.N,Net-(J6-Pad5)*
X124714000Y-122428000D03*
G04 #@! TD*
G04 #@! TO.P,SW10,2*
G04 #@! TO.N,Net-(D10-Pad2)*
X118364000Y-144018000D03*
G04 #@! TO.P,SW10,1*
G04 #@! TO.N,Net-(J6-Pad5)*
X124714000Y-141478000D03*
G04 #@! TD*
G04 #@! TO.P,SW14,2*
G04 #@! TO.N,Net-(D14-Pad2)*
X137414000Y-124968000D03*
G04 #@! TO.P,SW14,1*
G04 #@! TO.N,Net-(J6-Pad4)*
X143764000Y-122428000D03*
G04 #@! TD*
G04 #@! TO.P,SW15,2*
G04 #@! TO.N,Net-(D15-Pad2)*
X137414000Y-144018000D03*
G04 #@! TO.P,SW15,1*
G04 #@! TO.N,Net-(J6-Pad4)*
X143764000Y-141478000D03*
G04 #@! TD*
D13*
G04 #@! TO.N,Net-(D1-Pad1)*
G04 #@! TO.C,D1*
G36*
X98778142Y-74951674D02*
X98801803Y-74955184D01*
X98825007Y-74960996D01*
X98847529Y-74969054D01*
X98869153Y-74979282D01*
X98889670Y-74991579D01*
X98908883Y-75005829D01*
X98926607Y-75021893D01*
X98942671Y-75039617D01*
X98956921Y-75058830D01*
X98969218Y-75079347D01*
X98979446Y-75100971D01*
X98987504Y-75123493D01*
X98993316Y-75146697D01*
X98996826Y-75170358D01*
X98998000Y-75194250D01*
X98998000Y-75681750D01*
X98996826Y-75705642D01*
X98993316Y-75729303D01*
X98987504Y-75752507D01*
X98979446Y-75775029D01*
X98969218Y-75796653D01*
X98956921Y-75817170D01*
X98942671Y-75836383D01*
X98926607Y-75854107D01*
X98908883Y-75870171D01*
X98889670Y-75884421D01*
X98869153Y-75896718D01*
X98847529Y-75906946D01*
X98825007Y-75915004D01*
X98801803Y-75920816D01*
X98778142Y-75924326D01*
X98754250Y-75925500D01*
X97841750Y-75925500D01*
X97817858Y-75924326D01*
X97794197Y-75920816D01*
X97770993Y-75915004D01*
X97748471Y-75906946D01*
X97726847Y-75896718D01*
X97706330Y-75884421D01*
X97687117Y-75870171D01*
X97669393Y-75854107D01*
X97653329Y-75836383D01*
X97639079Y-75817170D01*
X97626782Y-75796653D01*
X97616554Y-75775029D01*
X97608496Y-75752507D01*
X97602684Y-75729303D01*
X97599174Y-75705642D01*
X97598000Y-75681750D01*
X97598000Y-75194250D01*
X97599174Y-75170358D01*
X97602684Y-75146697D01*
X97608496Y-75123493D01*
X97616554Y-75100971D01*
X97626782Y-75079347D01*
X97639079Y-75058830D01*
X97653329Y-75039617D01*
X97669393Y-75021893D01*
X97687117Y-75005829D01*
X97706330Y-74991579D01*
X97726847Y-74979282D01*
X97748471Y-74969054D01*
X97770993Y-74960996D01*
X97794197Y-74955184D01*
X97817858Y-74951674D01*
X97841750Y-74950500D01*
X98754250Y-74950500D01*
X98778142Y-74951674D01*
X98778142Y-74951674D01*
G37*
D14*
G04 #@! TD*
G04 #@! TO.P,D1,1*
G04 #@! TO.N,Net-(D1-Pad1)*
X98298000Y-75438000D03*
D13*
G04 #@! TO.N,Net-(D1-Pad2)*
G04 #@! TO.C,D1*
G36*
X98778142Y-73076674D02*
X98801803Y-73080184D01*
X98825007Y-73085996D01*
X98847529Y-73094054D01*
X98869153Y-73104282D01*
X98889670Y-73116579D01*
X98908883Y-73130829D01*
X98926607Y-73146893D01*
X98942671Y-73164617D01*
X98956921Y-73183830D01*
X98969218Y-73204347D01*
X98979446Y-73225971D01*
X98987504Y-73248493D01*
X98993316Y-73271697D01*
X98996826Y-73295358D01*
X98998000Y-73319250D01*
X98998000Y-73806750D01*
X98996826Y-73830642D01*
X98993316Y-73854303D01*
X98987504Y-73877507D01*
X98979446Y-73900029D01*
X98969218Y-73921653D01*
X98956921Y-73942170D01*
X98942671Y-73961383D01*
X98926607Y-73979107D01*
X98908883Y-73995171D01*
X98889670Y-74009421D01*
X98869153Y-74021718D01*
X98847529Y-74031946D01*
X98825007Y-74040004D01*
X98801803Y-74045816D01*
X98778142Y-74049326D01*
X98754250Y-74050500D01*
X97841750Y-74050500D01*
X97817858Y-74049326D01*
X97794197Y-74045816D01*
X97770993Y-74040004D01*
X97748471Y-74031946D01*
X97726847Y-74021718D01*
X97706330Y-74009421D01*
X97687117Y-73995171D01*
X97669393Y-73979107D01*
X97653329Y-73961383D01*
X97639079Y-73942170D01*
X97626782Y-73921653D01*
X97616554Y-73900029D01*
X97608496Y-73877507D01*
X97602684Y-73854303D01*
X97599174Y-73830642D01*
X97598000Y-73806750D01*
X97598000Y-73319250D01*
X97599174Y-73295358D01*
X97602684Y-73271697D01*
X97608496Y-73248493D01*
X97616554Y-73225971D01*
X97626782Y-73204347D01*
X97639079Y-73183830D01*
X97653329Y-73164617D01*
X97669393Y-73146893D01*
X97687117Y-73130829D01*
X97706330Y-73116579D01*
X97726847Y-73104282D01*
X97748471Y-73094054D01*
X97770993Y-73085996D01*
X97794197Y-73080184D01*
X97817858Y-73076674D01*
X97841750Y-73075500D01*
X98754250Y-73075500D01*
X98778142Y-73076674D01*
X98778142Y-73076674D01*
G37*
D14*
G04 #@! TD*
G04 #@! TO.P,D1,2*
G04 #@! TO.N,Net-(D1-Pad2)*
X98298000Y-73563000D03*
D13*
G04 #@! TO.N,Net-(D2-Pad2)*
G04 #@! TO.C,D2*
G36*
X98778142Y-92126674D02*
X98801803Y-92130184D01*
X98825007Y-92135996D01*
X98847529Y-92144054D01*
X98869153Y-92154282D01*
X98889670Y-92166579D01*
X98908883Y-92180829D01*
X98926607Y-92196893D01*
X98942671Y-92214617D01*
X98956921Y-92233830D01*
X98969218Y-92254347D01*
X98979446Y-92275971D01*
X98987504Y-92298493D01*
X98993316Y-92321697D01*
X98996826Y-92345358D01*
X98998000Y-92369250D01*
X98998000Y-92856750D01*
X98996826Y-92880642D01*
X98993316Y-92904303D01*
X98987504Y-92927507D01*
X98979446Y-92950029D01*
X98969218Y-92971653D01*
X98956921Y-92992170D01*
X98942671Y-93011383D01*
X98926607Y-93029107D01*
X98908883Y-93045171D01*
X98889670Y-93059421D01*
X98869153Y-93071718D01*
X98847529Y-93081946D01*
X98825007Y-93090004D01*
X98801803Y-93095816D01*
X98778142Y-93099326D01*
X98754250Y-93100500D01*
X97841750Y-93100500D01*
X97817858Y-93099326D01*
X97794197Y-93095816D01*
X97770993Y-93090004D01*
X97748471Y-93081946D01*
X97726847Y-93071718D01*
X97706330Y-93059421D01*
X97687117Y-93045171D01*
X97669393Y-93029107D01*
X97653329Y-93011383D01*
X97639079Y-92992170D01*
X97626782Y-92971653D01*
X97616554Y-92950029D01*
X97608496Y-92927507D01*
X97602684Y-92904303D01*
X97599174Y-92880642D01*
X97598000Y-92856750D01*
X97598000Y-92369250D01*
X97599174Y-92345358D01*
X97602684Y-92321697D01*
X97608496Y-92298493D01*
X97616554Y-92275971D01*
X97626782Y-92254347D01*
X97639079Y-92233830D01*
X97653329Y-92214617D01*
X97669393Y-92196893D01*
X97687117Y-92180829D01*
X97706330Y-92166579D01*
X97726847Y-92154282D01*
X97748471Y-92144054D01*
X97770993Y-92135996D01*
X97794197Y-92130184D01*
X97817858Y-92126674D01*
X97841750Y-92125500D01*
X98754250Y-92125500D01*
X98778142Y-92126674D01*
X98778142Y-92126674D01*
G37*
D14*
G04 #@! TD*
G04 #@! TO.P,D2,2*
G04 #@! TO.N,Net-(D2-Pad2)*
X98298000Y-92613000D03*
D13*
G04 #@! TO.N,Net-(D12-Pad1)*
G04 #@! TO.C,D2*
G36*
X98778142Y-94001674D02*
X98801803Y-94005184D01*
X98825007Y-94010996D01*
X98847529Y-94019054D01*
X98869153Y-94029282D01*
X98889670Y-94041579D01*
X98908883Y-94055829D01*
X98926607Y-94071893D01*
X98942671Y-94089617D01*
X98956921Y-94108830D01*
X98969218Y-94129347D01*
X98979446Y-94150971D01*
X98987504Y-94173493D01*
X98993316Y-94196697D01*
X98996826Y-94220358D01*
X98998000Y-94244250D01*
X98998000Y-94731750D01*
X98996826Y-94755642D01*
X98993316Y-94779303D01*
X98987504Y-94802507D01*
X98979446Y-94825029D01*
X98969218Y-94846653D01*
X98956921Y-94867170D01*
X98942671Y-94886383D01*
X98926607Y-94904107D01*
X98908883Y-94920171D01*
X98889670Y-94934421D01*
X98869153Y-94946718D01*
X98847529Y-94956946D01*
X98825007Y-94965004D01*
X98801803Y-94970816D01*
X98778142Y-94974326D01*
X98754250Y-94975500D01*
X97841750Y-94975500D01*
X97817858Y-94974326D01*
X97794197Y-94970816D01*
X97770993Y-94965004D01*
X97748471Y-94956946D01*
X97726847Y-94946718D01*
X97706330Y-94934421D01*
X97687117Y-94920171D01*
X97669393Y-94904107D01*
X97653329Y-94886383D01*
X97639079Y-94867170D01*
X97626782Y-94846653D01*
X97616554Y-94825029D01*
X97608496Y-94802507D01*
X97602684Y-94779303D01*
X97599174Y-94755642D01*
X97598000Y-94731750D01*
X97598000Y-94244250D01*
X97599174Y-94220358D01*
X97602684Y-94196697D01*
X97608496Y-94173493D01*
X97616554Y-94150971D01*
X97626782Y-94129347D01*
X97639079Y-94108830D01*
X97653329Y-94089617D01*
X97669393Y-94071893D01*
X97687117Y-94055829D01*
X97706330Y-94041579D01*
X97726847Y-94029282D01*
X97748471Y-94019054D01*
X97770993Y-94010996D01*
X97794197Y-94005184D01*
X97817858Y-94001674D01*
X97841750Y-94000500D01*
X98754250Y-94000500D01*
X98778142Y-94001674D01*
X98778142Y-94001674D01*
G37*
D14*
G04 #@! TD*
G04 #@! TO.P,D2,1*
G04 #@! TO.N,Net-(D12-Pad1)*
X98298000Y-94488000D03*
D13*
G04 #@! TO.N,Net-(D13-Pad1)*
G04 #@! TO.C,D3*
G36*
X98778142Y-112973174D02*
X98801803Y-112976684D01*
X98825007Y-112982496D01*
X98847529Y-112990554D01*
X98869153Y-113000782D01*
X98889670Y-113013079D01*
X98908883Y-113027329D01*
X98926607Y-113043393D01*
X98942671Y-113061117D01*
X98956921Y-113080330D01*
X98969218Y-113100847D01*
X98979446Y-113122471D01*
X98987504Y-113144993D01*
X98993316Y-113168197D01*
X98996826Y-113191858D01*
X98998000Y-113215750D01*
X98998000Y-113703250D01*
X98996826Y-113727142D01*
X98993316Y-113750803D01*
X98987504Y-113774007D01*
X98979446Y-113796529D01*
X98969218Y-113818153D01*
X98956921Y-113838670D01*
X98942671Y-113857883D01*
X98926607Y-113875607D01*
X98908883Y-113891671D01*
X98889670Y-113905921D01*
X98869153Y-113918218D01*
X98847529Y-113928446D01*
X98825007Y-113936504D01*
X98801803Y-113942316D01*
X98778142Y-113945826D01*
X98754250Y-113947000D01*
X97841750Y-113947000D01*
X97817858Y-113945826D01*
X97794197Y-113942316D01*
X97770993Y-113936504D01*
X97748471Y-113928446D01*
X97726847Y-113918218D01*
X97706330Y-113905921D01*
X97687117Y-113891671D01*
X97669393Y-113875607D01*
X97653329Y-113857883D01*
X97639079Y-113838670D01*
X97626782Y-113818153D01*
X97616554Y-113796529D01*
X97608496Y-113774007D01*
X97602684Y-113750803D01*
X97599174Y-113727142D01*
X97598000Y-113703250D01*
X97598000Y-113215750D01*
X97599174Y-113191858D01*
X97602684Y-113168197D01*
X97608496Y-113144993D01*
X97616554Y-113122471D01*
X97626782Y-113100847D01*
X97639079Y-113080330D01*
X97653329Y-113061117D01*
X97669393Y-113043393D01*
X97687117Y-113027329D01*
X97706330Y-113013079D01*
X97726847Y-113000782D01*
X97748471Y-112990554D01*
X97770993Y-112982496D01*
X97794197Y-112976684D01*
X97817858Y-112973174D01*
X97841750Y-112972000D01*
X98754250Y-112972000D01*
X98778142Y-112973174D01*
X98778142Y-112973174D01*
G37*
D14*
G04 #@! TD*
G04 #@! TO.P,D3,1*
G04 #@! TO.N,Net-(D13-Pad1)*
X98298000Y-113459500D03*
D13*
G04 #@! TO.N,Net-(D3-Pad2)*
G04 #@! TO.C,D3*
G36*
X98778142Y-111098174D02*
X98801803Y-111101684D01*
X98825007Y-111107496D01*
X98847529Y-111115554D01*
X98869153Y-111125782D01*
X98889670Y-111138079D01*
X98908883Y-111152329D01*
X98926607Y-111168393D01*
X98942671Y-111186117D01*
X98956921Y-111205330D01*
X98969218Y-111225847D01*
X98979446Y-111247471D01*
X98987504Y-111269993D01*
X98993316Y-111293197D01*
X98996826Y-111316858D01*
X98998000Y-111340750D01*
X98998000Y-111828250D01*
X98996826Y-111852142D01*
X98993316Y-111875803D01*
X98987504Y-111899007D01*
X98979446Y-111921529D01*
X98969218Y-111943153D01*
X98956921Y-111963670D01*
X98942671Y-111982883D01*
X98926607Y-112000607D01*
X98908883Y-112016671D01*
X98889670Y-112030921D01*
X98869153Y-112043218D01*
X98847529Y-112053446D01*
X98825007Y-112061504D01*
X98801803Y-112067316D01*
X98778142Y-112070826D01*
X98754250Y-112072000D01*
X97841750Y-112072000D01*
X97817858Y-112070826D01*
X97794197Y-112067316D01*
X97770993Y-112061504D01*
X97748471Y-112053446D01*
X97726847Y-112043218D01*
X97706330Y-112030921D01*
X97687117Y-112016671D01*
X97669393Y-112000607D01*
X97653329Y-111982883D01*
X97639079Y-111963670D01*
X97626782Y-111943153D01*
X97616554Y-111921529D01*
X97608496Y-111899007D01*
X97602684Y-111875803D01*
X97599174Y-111852142D01*
X97598000Y-111828250D01*
X97598000Y-111340750D01*
X97599174Y-111316858D01*
X97602684Y-111293197D01*
X97608496Y-111269993D01*
X97616554Y-111247471D01*
X97626782Y-111225847D01*
X97639079Y-111205330D01*
X97653329Y-111186117D01*
X97669393Y-111168393D01*
X97687117Y-111152329D01*
X97706330Y-111138079D01*
X97726847Y-111125782D01*
X97748471Y-111115554D01*
X97770993Y-111107496D01*
X97794197Y-111101684D01*
X97817858Y-111098174D01*
X97841750Y-111097000D01*
X98754250Y-111097000D01*
X98778142Y-111098174D01*
X98778142Y-111098174D01*
G37*
D14*
G04 #@! TD*
G04 #@! TO.P,D3,2*
G04 #@! TO.N,Net-(D3-Pad2)*
X98298000Y-111584500D03*
D13*
G04 #@! TO.N,Net-(D4-Pad2)*
G04 #@! TO.C,D4*
G36*
X98905142Y-130275174D02*
X98928803Y-130278684D01*
X98952007Y-130284496D01*
X98974529Y-130292554D01*
X98996153Y-130302782D01*
X99016670Y-130315079D01*
X99035883Y-130329329D01*
X99053607Y-130345393D01*
X99069671Y-130363117D01*
X99083921Y-130382330D01*
X99096218Y-130402847D01*
X99106446Y-130424471D01*
X99114504Y-130446993D01*
X99120316Y-130470197D01*
X99123826Y-130493858D01*
X99125000Y-130517750D01*
X99125000Y-131005250D01*
X99123826Y-131029142D01*
X99120316Y-131052803D01*
X99114504Y-131076007D01*
X99106446Y-131098529D01*
X99096218Y-131120153D01*
X99083921Y-131140670D01*
X99069671Y-131159883D01*
X99053607Y-131177607D01*
X99035883Y-131193671D01*
X99016670Y-131207921D01*
X98996153Y-131220218D01*
X98974529Y-131230446D01*
X98952007Y-131238504D01*
X98928803Y-131244316D01*
X98905142Y-131247826D01*
X98881250Y-131249000D01*
X97968750Y-131249000D01*
X97944858Y-131247826D01*
X97921197Y-131244316D01*
X97897993Y-131238504D01*
X97875471Y-131230446D01*
X97853847Y-131220218D01*
X97833330Y-131207921D01*
X97814117Y-131193671D01*
X97796393Y-131177607D01*
X97780329Y-131159883D01*
X97766079Y-131140670D01*
X97753782Y-131120153D01*
X97743554Y-131098529D01*
X97735496Y-131076007D01*
X97729684Y-131052803D01*
X97726174Y-131029142D01*
X97725000Y-131005250D01*
X97725000Y-130517750D01*
X97726174Y-130493858D01*
X97729684Y-130470197D01*
X97735496Y-130446993D01*
X97743554Y-130424471D01*
X97753782Y-130402847D01*
X97766079Y-130382330D01*
X97780329Y-130363117D01*
X97796393Y-130345393D01*
X97814117Y-130329329D01*
X97833330Y-130315079D01*
X97853847Y-130302782D01*
X97875471Y-130292554D01*
X97897993Y-130284496D01*
X97921197Y-130278684D01*
X97944858Y-130275174D01*
X97968750Y-130274000D01*
X98881250Y-130274000D01*
X98905142Y-130275174D01*
X98905142Y-130275174D01*
G37*
D14*
G04 #@! TD*
G04 #@! TO.P,D4,2*
G04 #@! TO.N,Net-(D4-Pad2)*
X98425000Y-130761500D03*
D13*
G04 #@! TO.N,Net-(D14-Pad1)*
G04 #@! TO.C,D4*
G36*
X98905142Y-132150174D02*
X98928803Y-132153684D01*
X98952007Y-132159496D01*
X98974529Y-132167554D01*
X98996153Y-132177782D01*
X99016670Y-132190079D01*
X99035883Y-132204329D01*
X99053607Y-132220393D01*
X99069671Y-132238117D01*
X99083921Y-132257330D01*
X99096218Y-132277847D01*
X99106446Y-132299471D01*
X99114504Y-132321993D01*
X99120316Y-132345197D01*
X99123826Y-132368858D01*
X99125000Y-132392750D01*
X99125000Y-132880250D01*
X99123826Y-132904142D01*
X99120316Y-132927803D01*
X99114504Y-132951007D01*
X99106446Y-132973529D01*
X99096218Y-132995153D01*
X99083921Y-133015670D01*
X99069671Y-133034883D01*
X99053607Y-133052607D01*
X99035883Y-133068671D01*
X99016670Y-133082921D01*
X98996153Y-133095218D01*
X98974529Y-133105446D01*
X98952007Y-133113504D01*
X98928803Y-133119316D01*
X98905142Y-133122826D01*
X98881250Y-133124000D01*
X97968750Y-133124000D01*
X97944858Y-133122826D01*
X97921197Y-133119316D01*
X97897993Y-133113504D01*
X97875471Y-133105446D01*
X97853847Y-133095218D01*
X97833330Y-133082921D01*
X97814117Y-133068671D01*
X97796393Y-133052607D01*
X97780329Y-133034883D01*
X97766079Y-133015670D01*
X97753782Y-132995153D01*
X97743554Y-132973529D01*
X97735496Y-132951007D01*
X97729684Y-132927803D01*
X97726174Y-132904142D01*
X97725000Y-132880250D01*
X97725000Y-132392750D01*
X97726174Y-132368858D01*
X97729684Y-132345197D01*
X97735496Y-132321993D01*
X97743554Y-132299471D01*
X97753782Y-132277847D01*
X97766079Y-132257330D01*
X97780329Y-132238117D01*
X97796393Y-132220393D01*
X97814117Y-132204329D01*
X97833330Y-132190079D01*
X97853847Y-132177782D01*
X97875471Y-132167554D01*
X97897993Y-132159496D01*
X97921197Y-132153684D01*
X97944858Y-132150174D01*
X97968750Y-132149000D01*
X98881250Y-132149000D01*
X98905142Y-132150174D01*
X98905142Y-132150174D01*
G37*
D14*
G04 #@! TD*
G04 #@! TO.P,D4,1*
G04 #@! TO.N,Net-(D14-Pad1)*
X98425000Y-132636500D03*
D13*
G04 #@! TO.N,Net-(D10-Pad1)*
G04 #@! TO.C,D5*
G36*
X98524142Y-151278674D02*
X98547803Y-151282184D01*
X98571007Y-151287996D01*
X98593529Y-151296054D01*
X98615153Y-151306282D01*
X98635670Y-151318579D01*
X98654883Y-151332829D01*
X98672607Y-151348893D01*
X98688671Y-151366617D01*
X98702921Y-151385830D01*
X98715218Y-151406347D01*
X98725446Y-151427971D01*
X98733504Y-151450493D01*
X98739316Y-151473697D01*
X98742826Y-151497358D01*
X98744000Y-151521250D01*
X98744000Y-152008750D01*
X98742826Y-152032642D01*
X98739316Y-152056303D01*
X98733504Y-152079507D01*
X98725446Y-152102029D01*
X98715218Y-152123653D01*
X98702921Y-152144170D01*
X98688671Y-152163383D01*
X98672607Y-152181107D01*
X98654883Y-152197171D01*
X98635670Y-152211421D01*
X98615153Y-152223718D01*
X98593529Y-152233946D01*
X98571007Y-152242004D01*
X98547803Y-152247816D01*
X98524142Y-152251326D01*
X98500250Y-152252500D01*
X97587750Y-152252500D01*
X97563858Y-152251326D01*
X97540197Y-152247816D01*
X97516993Y-152242004D01*
X97494471Y-152233946D01*
X97472847Y-152223718D01*
X97452330Y-152211421D01*
X97433117Y-152197171D01*
X97415393Y-152181107D01*
X97399329Y-152163383D01*
X97385079Y-152144170D01*
X97372782Y-152123653D01*
X97362554Y-152102029D01*
X97354496Y-152079507D01*
X97348684Y-152056303D01*
X97345174Y-152032642D01*
X97344000Y-152008750D01*
X97344000Y-151521250D01*
X97345174Y-151497358D01*
X97348684Y-151473697D01*
X97354496Y-151450493D01*
X97362554Y-151427971D01*
X97372782Y-151406347D01*
X97385079Y-151385830D01*
X97399329Y-151366617D01*
X97415393Y-151348893D01*
X97433117Y-151332829D01*
X97452330Y-151318579D01*
X97472847Y-151306282D01*
X97494471Y-151296054D01*
X97516993Y-151287996D01*
X97540197Y-151282184D01*
X97563858Y-151278674D01*
X97587750Y-151277500D01*
X98500250Y-151277500D01*
X98524142Y-151278674D01*
X98524142Y-151278674D01*
G37*
D14*
G04 #@! TD*
G04 #@! TO.P,D5,1*
G04 #@! TO.N,Net-(D10-Pad1)*
X98044000Y-151765000D03*
D13*
G04 #@! TO.N,Net-(D5-Pad2)*
G04 #@! TO.C,D5*
G36*
X98524142Y-149403674D02*
X98547803Y-149407184D01*
X98571007Y-149412996D01*
X98593529Y-149421054D01*
X98615153Y-149431282D01*
X98635670Y-149443579D01*
X98654883Y-149457829D01*
X98672607Y-149473893D01*
X98688671Y-149491617D01*
X98702921Y-149510830D01*
X98715218Y-149531347D01*
X98725446Y-149552971D01*
X98733504Y-149575493D01*
X98739316Y-149598697D01*
X98742826Y-149622358D01*
X98744000Y-149646250D01*
X98744000Y-150133750D01*
X98742826Y-150157642D01*
X98739316Y-150181303D01*
X98733504Y-150204507D01*
X98725446Y-150227029D01*
X98715218Y-150248653D01*
X98702921Y-150269170D01*
X98688671Y-150288383D01*
X98672607Y-150306107D01*
X98654883Y-150322171D01*
X98635670Y-150336421D01*
X98615153Y-150348718D01*
X98593529Y-150358946D01*
X98571007Y-150367004D01*
X98547803Y-150372816D01*
X98524142Y-150376326D01*
X98500250Y-150377500D01*
X97587750Y-150377500D01*
X97563858Y-150376326D01*
X97540197Y-150372816D01*
X97516993Y-150367004D01*
X97494471Y-150358946D01*
X97472847Y-150348718D01*
X97452330Y-150336421D01*
X97433117Y-150322171D01*
X97415393Y-150306107D01*
X97399329Y-150288383D01*
X97385079Y-150269170D01*
X97372782Y-150248653D01*
X97362554Y-150227029D01*
X97354496Y-150204507D01*
X97348684Y-150181303D01*
X97345174Y-150157642D01*
X97344000Y-150133750D01*
X97344000Y-149646250D01*
X97345174Y-149622358D01*
X97348684Y-149598697D01*
X97354496Y-149575493D01*
X97362554Y-149552971D01*
X97372782Y-149531347D01*
X97385079Y-149510830D01*
X97399329Y-149491617D01*
X97415393Y-149473893D01*
X97433117Y-149457829D01*
X97452330Y-149443579D01*
X97472847Y-149431282D01*
X97494471Y-149421054D01*
X97516993Y-149412996D01*
X97540197Y-149407184D01*
X97563858Y-149403674D01*
X97587750Y-149402500D01*
X98500250Y-149402500D01*
X98524142Y-149403674D01*
X98524142Y-149403674D01*
G37*
D14*
G04 #@! TD*
G04 #@! TO.P,D5,2*
G04 #@! TO.N,Net-(D5-Pad2)*
X98044000Y-149890000D03*
D13*
G04 #@! TO.N,Net-(D6-Pad2)*
G04 #@! TO.C,D6*
G36*
X117828142Y-73076674D02*
X117851803Y-73080184D01*
X117875007Y-73085996D01*
X117897529Y-73094054D01*
X117919153Y-73104282D01*
X117939670Y-73116579D01*
X117958883Y-73130829D01*
X117976607Y-73146893D01*
X117992671Y-73164617D01*
X118006921Y-73183830D01*
X118019218Y-73204347D01*
X118029446Y-73225971D01*
X118037504Y-73248493D01*
X118043316Y-73271697D01*
X118046826Y-73295358D01*
X118048000Y-73319250D01*
X118048000Y-73806750D01*
X118046826Y-73830642D01*
X118043316Y-73854303D01*
X118037504Y-73877507D01*
X118029446Y-73900029D01*
X118019218Y-73921653D01*
X118006921Y-73942170D01*
X117992671Y-73961383D01*
X117976607Y-73979107D01*
X117958883Y-73995171D01*
X117939670Y-74009421D01*
X117919153Y-74021718D01*
X117897529Y-74031946D01*
X117875007Y-74040004D01*
X117851803Y-74045816D01*
X117828142Y-74049326D01*
X117804250Y-74050500D01*
X116891750Y-74050500D01*
X116867858Y-74049326D01*
X116844197Y-74045816D01*
X116820993Y-74040004D01*
X116798471Y-74031946D01*
X116776847Y-74021718D01*
X116756330Y-74009421D01*
X116737117Y-73995171D01*
X116719393Y-73979107D01*
X116703329Y-73961383D01*
X116689079Y-73942170D01*
X116676782Y-73921653D01*
X116666554Y-73900029D01*
X116658496Y-73877507D01*
X116652684Y-73854303D01*
X116649174Y-73830642D01*
X116648000Y-73806750D01*
X116648000Y-73319250D01*
X116649174Y-73295358D01*
X116652684Y-73271697D01*
X116658496Y-73248493D01*
X116666554Y-73225971D01*
X116676782Y-73204347D01*
X116689079Y-73183830D01*
X116703329Y-73164617D01*
X116719393Y-73146893D01*
X116737117Y-73130829D01*
X116756330Y-73116579D01*
X116776847Y-73104282D01*
X116798471Y-73094054D01*
X116820993Y-73085996D01*
X116844197Y-73080184D01*
X116867858Y-73076674D01*
X116891750Y-73075500D01*
X117804250Y-73075500D01*
X117828142Y-73076674D01*
X117828142Y-73076674D01*
G37*
D14*
G04 #@! TD*
G04 #@! TO.P,D6,2*
G04 #@! TO.N,Net-(D6-Pad2)*
X117348000Y-73563000D03*
D13*
G04 #@! TO.N,Net-(D1-Pad1)*
G04 #@! TO.C,D6*
G36*
X117828142Y-74951674D02*
X117851803Y-74955184D01*
X117875007Y-74960996D01*
X117897529Y-74969054D01*
X117919153Y-74979282D01*
X117939670Y-74991579D01*
X117958883Y-75005829D01*
X117976607Y-75021893D01*
X117992671Y-75039617D01*
X118006921Y-75058830D01*
X118019218Y-75079347D01*
X118029446Y-75100971D01*
X118037504Y-75123493D01*
X118043316Y-75146697D01*
X118046826Y-75170358D01*
X118048000Y-75194250D01*
X118048000Y-75681750D01*
X118046826Y-75705642D01*
X118043316Y-75729303D01*
X118037504Y-75752507D01*
X118029446Y-75775029D01*
X118019218Y-75796653D01*
X118006921Y-75817170D01*
X117992671Y-75836383D01*
X117976607Y-75854107D01*
X117958883Y-75870171D01*
X117939670Y-75884421D01*
X117919153Y-75896718D01*
X117897529Y-75906946D01*
X117875007Y-75915004D01*
X117851803Y-75920816D01*
X117828142Y-75924326D01*
X117804250Y-75925500D01*
X116891750Y-75925500D01*
X116867858Y-75924326D01*
X116844197Y-75920816D01*
X116820993Y-75915004D01*
X116798471Y-75906946D01*
X116776847Y-75896718D01*
X116756330Y-75884421D01*
X116737117Y-75870171D01*
X116719393Y-75854107D01*
X116703329Y-75836383D01*
X116689079Y-75817170D01*
X116676782Y-75796653D01*
X116666554Y-75775029D01*
X116658496Y-75752507D01*
X116652684Y-75729303D01*
X116649174Y-75705642D01*
X116648000Y-75681750D01*
X116648000Y-75194250D01*
X116649174Y-75170358D01*
X116652684Y-75146697D01*
X116658496Y-75123493D01*
X116666554Y-75100971D01*
X116676782Y-75079347D01*
X116689079Y-75058830D01*
X116703329Y-75039617D01*
X116719393Y-75021893D01*
X116737117Y-75005829D01*
X116756330Y-74991579D01*
X116776847Y-74979282D01*
X116798471Y-74969054D01*
X116820993Y-74960996D01*
X116844197Y-74955184D01*
X116867858Y-74951674D01*
X116891750Y-74950500D01*
X117804250Y-74950500D01*
X117828142Y-74951674D01*
X117828142Y-74951674D01*
G37*
D14*
G04 #@! TD*
G04 #@! TO.P,D6,1*
G04 #@! TO.N,Net-(D1-Pad1)*
X117348000Y-75438000D03*
D13*
G04 #@! TO.N,Net-(D12-Pad1)*
G04 #@! TO.C,D7*
G36*
X117828142Y-94001674D02*
X117851803Y-94005184D01*
X117875007Y-94010996D01*
X117897529Y-94019054D01*
X117919153Y-94029282D01*
X117939670Y-94041579D01*
X117958883Y-94055829D01*
X117976607Y-94071893D01*
X117992671Y-94089617D01*
X118006921Y-94108830D01*
X118019218Y-94129347D01*
X118029446Y-94150971D01*
X118037504Y-94173493D01*
X118043316Y-94196697D01*
X118046826Y-94220358D01*
X118048000Y-94244250D01*
X118048000Y-94731750D01*
X118046826Y-94755642D01*
X118043316Y-94779303D01*
X118037504Y-94802507D01*
X118029446Y-94825029D01*
X118019218Y-94846653D01*
X118006921Y-94867170D01*
X117992671Y-94886383D01*
X117976607Y-94904107D01*
X117958883Y-94920171D01*
X117939670Y-94934421D01*
X117919153Y-94946718D01*
X117897529Y-94956946D01*
X117875007Y-94965004D01*
X117851803Y-94970816D01*
X117828142Y-94974326D01*
X117804250Y-94975500D01*
X116891750Y-94975500D01*
X116867858Y-94974326D01*
X116844197Y-94970816D01*
X116820993Y-94965004D01*
X116798471Y-94956946D01*
X116776847Y-94946718D01*
X116756330Y-94934421D01*
X116737117Y-94920171D01*
X116719393Y-94904107D01*
X116703329Y-94886383D01*
X116689079Y-94867170D01*
X116676782Y-94846653D01*
X116666554Y-94825029D01*
X116658496Y-94802507D01*
X116652684Y-94779303D01*
X116649174Y-94755642D01*
X116648000Y-94731750D01*
X116648000Y-94244250D01*
X116649174Y-94220358D01*
X116652684Y-94196697D01*
X116658496Y-94173493D01*
X116666554Y-94150971D01*
X116676782Y-94129347D01*
X116689079Y-94108830D01*
X116703329Y-94089617D01*
X116719393Y-94071893D01*
X116737117Y-94055829D01*
X116756330Y-94041579D01*
X116776847Y-94029282D01*
X116798471Y-94019054D01*
X116820993Y-94010996D01*
X116844197Y-94005184D01*
X116867858Y-94001674D01*
X116891750Y-94000500D01*
X117804250Y-94000500D01*
X117828142Y-94001674D01*
X117828142Y-94001674D01*
G37*
D14*
G04 #@! TD*
G04 #@! TO.P,D7,1*
G04 #@! TO.N,Net-(D12-Pad1)*
X117348000Y-94488000D03*
D13*
G04 #@! TO.N,Net-(D7-Pad2)*
G04 #@! TO.C,D7*
G36*
X117828142Y-92126674D02*
X117851803Y-92130184D01*
X117875007Y-92135996D01*
X117897529Y-92144054D01*
X117919153Y-92154282D01*
X117939670Y-92166579D01*
X117958883Y-92180829D01*
X117976607Y-92196893D01*
X117992671Y-92214617D01*
X118006921Y-92233830D01*
X118019218Y-92254347D01*
X118029446Y-92275971D01*
X118037504Y-92298493D01*
X118043316Y-92321697D01*
X118046826Y-92345358D01*
X118048000Y-92369250D01*
X118048000Y-92856750D01*
X118046826Y-92880642D01*
X118043316Y-92904303D01*
X118037504Y-92927507D01*
X118029446Y-92950029D01*
X118019218Y-92971653D01*
X118006921Y-92992170D01*
X117992671Y-93011383D01*
X117976607Y-93029107D01*
X117958883Y-93045171D01*
X117939670Y-93059421D01*
X117919153Y-93071718D01*
X117897529Y-93081946D01*
X117875007Y-93090004D01*
X117851803Y-93095816D01*
X117828142Y-93099326D01*
X117804250Y-93100500D01*
X116891750Y-93100500D01*
X116867858Y-93099326D01*
X116844197Y-93095816D01*
X116820993Y-93090004D01*
X116798471Y-93081946D01*
X116776847Y-93071718D01*
X116756330Y-93059421D01*
X116737117Y-93045171D01*
X116719393Y-93029107D01*
X116703329Y-93011383D01*
X116689079Y-92992170D01*
X116676782Y-92971653D01*
X116666554Y-92950029D01*
X116658496Y-92927507D01*
X116652684Y-92904303D01*
X116649174Y-92880642D01*
X116648000Y-92856750D01*
X116648000Y-92369250D01*
X116649174Y-92345358D01*
X116652684Y-92321697D01*
X116658496Y-92298493D01*
X116666554Y-92275971D01*
X116676782Y-92254347D01*
X116689079Y-92233830D01*
X116703329Y-92214617D01*
X116719393Y-92196893D01*
X116737117Y-92180829D01*
X116756330Y-92166579D01*
X116776847Y-92154282D01*
X116798471Y-92144054D01*
X116820993Y-92135996D01*
X116844197Y-92130184D01*
X116867858Y-92126674D01*
X116891750Y-92125500D01*
X117804250Y-92125500D01*
X117828142Y-92126674D01*
X117828142Y-92126674D01*
G37*
D14*
G04 #@! TD*
G04 #@! TO.P,D7,2*
G04 #@! TO.N,Net-(D7-Pad2)*
X117348000Y-92613000D03*
D13*
G04 #@! TO.N,Net-(D8-Pad2)*
G04 #@! TO.C,D8*
G36*
X117955142Y-111049674D02*
X117978803Y-111053184D01*
X118002007Y-111058996D01*
X118024529Y-111067054D01*
X118046153Y-111077282D01*
X118066670Y-111089579D01*
X118085883Y-111103829D01*
X118103607Y-111119893D01*
X118119671Y-111137617D01*
X118133921Y-111156830D01*
X118146218Y-111177347D01*
X118156446Y-111198971D01*
X118164504Y-111221493D01*
X118170316Y-111244697D01*
X118173826Y-111268358D01*
X118175000Y-111292250D01*
X118175000Y-111779750D01*
X118173826Y-111803642D01*
X118170316Y-111827303D01*
X118164504Y-111850507D01*
X118156446Y-111873029D01*
X118146218Y-111894653D01*
X118133921Y-111915170D01*
X118119671Y-111934383D01*
X118103607Y-111952107D01*
X118085883Y-111968171D01*
X118066670Y-111982421D01*
X118046153Y-111994718D01*
X118024529Y-112004946D01*
X118002007Y-112013004D01*
X117978803Y-112018816D01*
X117955142Y-112022326D01*
X117931250Y-112023500D01*
X117018750Y-112023500D01*
X116994858Y-112022326D01*
X116971197Y-112018816D01*
X116947993Y-112013004D01*
X116925471Y-112004946D01*
X116903847Y-111994718D01*
X116883330Y-111982421D01*
X116864117Y-111968171D01*
X116846393Y-111952107D01*
X116830329Y-111934383D01*
X116816079Y-111915170D01*
X116803782Y-111894653D01*
X116793554Y-111873029D01*
X116785496Y-111850507D01*
X116779684Y-111827303D01*
X116776174Y-111803642D01*
X116775000Y-111779750D01*
X116775000Y-111292250D01*
X116776174Y-111268358D01*
X116779684Y-111244697D01*
X116785496Y-111221493D01*
X116793554Y-111198971D01*
X116803782Y-111177347D01*
X116816079Y-111156830D01*
X116830329Y-111137617D01*
X116846393Y-111119893D01*
X116864117Y-111103829D01*
X116883330Y-111089579D01*
X116903847Y-111077282D01*
X116925471Y-111067054D01*
X116947993Y-111058996D01*
X116971197Y-111053184D01*
X116994858Y-111049674D01*
X117018750Y-111048500D01*
X117931250Y-111048500D01*
X117955142Y-111049674D01*
X117955142Y-111049674D01*
G37*
D14*
G04 #@! TD*
G04 #@! TO.P,D8,2*
G04 #@! TO.N,Net-(D8-Pad2)*
X117475000Y-111536000D03*
D13*
G04 #@! TO.N,Net-(D13-Pad1)*
G04 #@! TO.C,D8*
G36*
X117955142Y-112924674D02*
X117978803Y-112928184D01*
X118002007Y-112933996D01*
X118024529Y-112942054D01*
X118046153Y-112952282D01*
X118066670Y-112964579D01*
X118085883Y-112978829D01*
X118103607Y-112994893D01*
X118119671Y-113012617D01*
X118133921Y-113031830D01*
X118146218Y-113052347D01*
X118156446Y-113073971D01*
X118164504Y-113096493D01*
X118170316Y-113119697D01*
X118173826Y-113143358D01*
X118175000Y-113167250D01*
X118175000Y-113654750D01*
X118173826Y-113678642D01*
X118170316Y-113702303D01*
X118164504Y-113725507D01*
X118156446Y-113748029D01*
X118146218Y-113769653D01*
X118133921Y-113790170D01*
X118119671Y-113809383D01*
X118103607Y-113827107D01*
X118085883Y-113843171D01*
X118066670Y-113857421D01*
X118046153Y-113869718D01*
X118024529Y-113879946D01*
X118002007Y-113888004D01*
X117978803Y-113893816D01*
X117955142Y-113897326D01*
X117931250Y-113898500D01*
X117018750Y-113898500D01*
X116994858Y-113897326D01*
X116971197Y-113893816D01*
X116947993Y-113888004D01*
X116925471Y-113879946D01*
X116903847Y-113869718D01*
X116883330Y-113857421D01*
X116864117Y-113843171D01*
X116846393Y-113827107D01*
X116830329Y-113809383D01*
X116816079Y-113790170D01*
X116803782Y-113769653D01*
X116793554Y-113748029D01*
X116785496Y-113725507D01*
X116779684Y-113702303D01*
X116776174Y-113678642D01*
X116775000Y-113654750D01*
X116775000Y-113167250D01*
X116776174Y-113143358D01*
X116779684Y-113119697D01*
X116785496Y-113096493D01*
X116793554Y-113073971D01*
X116803782Y-113052347D01*
X116816079Y-113031830D01*
X116830329Y-113012617D01*
X116846393Y-112994893D01*
X116864117Y-112978829D01*
X116883330Y-112964579D01*
X116903847Y-112952282D01*
X116925471Y-112942054D01*
X116947993Y-112933996D01*
X116971197Y-112928184D01*
X116994858Y-112924674D01*
X117018750Y-112923500D01*
X117931250Y-112923500D01*
X117955142Y-112924674D01*
X117955142Y-112924674D01*
G37*
D14*
G04 #@! TD*
G04 #@! TO.P,D8,1*
G04 #@! TO.N,Net-(D13-Pad1)*
X117475000Y-113411000D03*
D13*
G04 #@! TO.N,Net-(D14-Pad1)*
G04 #@! TO.C,D9*
G36*
X117828142Y-132150174D02*
X117851803Y-132153684D01*
X117875007Y-132159496D01*
X117897529Y-132167554D01*
X117919153Y-132177782D01*
X117939670Y-132190079D01*
X117958883Y-132204329D01*
X117976607Y-132220393D01*
X117992671Y-132238117D01*
X118006921Y-132257330D01*
X118019218Y-132277847D01*
X118029446Y-132299471D01*
X118037504Y-132321993D01*
X118043316Y-132345197D01*
X118046826Y-132368858D01*
X118048000Y-132392750D01*
X118048000Y-132880250D01*
X118046826Y-132904142D01*
X118043316Y-132927803D01*
X118037504Y-132951007D01*
X118029446Y-132973529D01*
X118019218Y-132995153D01*
X118006921Y-133015670D01*
X117992671Y-133034883D01*
X117976607Y-133052607D01*
X117958883Y-133068671D01*
X117939670Y-133082921D01*
X117919153Y-133095218D01*
X117897529Y-133105446D01*
X117875007Y-133113504D01*
X117851803Y-133119316D01*
X117828142Y-133122826D01*
X117804250Y-133124000D01*
X116891750Y-133124000D01*
X116867858Y-133122826D01*
X116844197Y-133119316D01*
X116820993Y-133113504D01*
X116798471Y-133105446D01*
X116776847Y-133095218D01*
X116756330Y-133082921D01*
X116737117Y-133068671D01*
X116719393Y-133052607D01*
X116703329Y-133034883D01*
X116689079Y-133015670D01*
X116676782Y-132995153D01*
X116666554Y-132973529D01*
X116658496Y-132951007D01*
X116652684Y-132927803D01*
X116649174Y-132904142D01*
X116648000Y-132880250D01*
X116648000Y-132392750D01*
X116649174Y-132368858D01*
X116652684Y-132345197D01*
X116658496Y-132321993D01*
X116666554Y-132299471D01*
X116676782Y-132277847D01*
X116689079Y-132257330D01*
X116703329Y-132238117D01*
X116719393Y-132220393D01*
X116737117Y-132204329D01*
X116756330Y-132190079D01*
X116776847Y-132177782D01*
X116798471Y-132167554D01*
X116820993Y-132159496D01*
X116844197Y-132153684D01*
X116867858Y-132150174D01*
X116891750Y-132149000D01*
X117804250Y-132149000D01*
X117828142Y-132150174D01*
X117828142Y-132150174D01*
G37*
D14*
G04 #@! TD*
G04 #@! TO.P,D9,1*
G04 #@! TO.N,Net-(D14-Pad1)*
X117348000Y-132636500D03*
D13*
G04 #@! TO.N,Net-(D9-Pad2)*
G04 #@! TO.C,D9*
G36*
X117828142Y-130275174D02*
X117851803Y-130278684D01*
X117875007Y-130284496D01*
X117897529Y-130292554D01*
X117919153Y-130302782D01*
X117939670Y-130315079D01*
X117958883Y-130329329D01*
X117976607Y-130345393D01*
X117992671Y-130363117D01*
X118006921Y-130382330D01*
X118019218Y-130402847D01*
X118029446Y-130424471D01*
X118037504Y-130446993D01*
X118043316Y-130470197D01*
X118046826Y-130493858D01*
X118048000Y-130517750D01*
X118048000Y-131005250D01*
X118046826Y-131029142D01*
X118043316Y-131052803D01*
X118037504Y-131076007D01*
X118029446Y-131098529D01*
X118019218Y-131120153D01*
X118006921Y-131140670D01*
X117992671Y-131159883D01*
X117976607Y-131177607D01*
X117958883Y-131193671D01*
X117939670Y-131207921D01*
X117919153Y-131220218D01*
X117897529Y-131230446D01*
X117875007Y-131238504D01*
X117851803Y-131244316D01*
X117828142Y-131247826D01*
X117804250Y-131249000D01*
X116891750Y-131249000D01*
X116867858Y-131247826D01*
X116844197Y-131244316D01*
X116820993Y-131238504D01*
X116798471Y-131230446D01*
X116776847Y-131220218D01*
X116756330Y-131207921D01*
X116737117Y-131193671D01*
X116719393Y-131177607D01*
X116703329Y-131159883D01*
X116689079Y-131140670D01*
X116676782Y-131120153D01*
X116666554Y-131098529D01*
X116658496Y-131076007D01*
X116652684Y-131052803D01*
X116649174Y-131029142D01*
X116648000Y-131005250D01*
X116648000Y-130517750D01*
X116649174Y-130493858D01*
X116652684Y-130470197D01*
X116658496Y-130446993D01*
X116666554Y-130424471D01*
X116676782Y-130402847D01*
X116689079Y-130382330D01*
X116703329Y-130363117D01*
X116719393Y-130345393D01*
X116737117Y-130329329D01*
X116756330Y-130315079D01*
X116776847Y-130302782D01*
X116798471Y-130292554D01*
X116820993Y-130284496D01*
X116844197Y-130278684D01*
X116867858Y-130275174D01*
X116891750Y-130274000D01*
X117804250Y-130274000D01*
X117828142Y-130275174D01*
X117828142Y-130275174D01*
G37*
D14*
G04 #@! TD*
G04 #@! TO.P,D9,2*
G04 #@! TO.N,Net-(D9-Pad2)*
X117348000Y-130761500D03*
D13*
G04 #@! TO.N,Net-(D10-Pad2)*
G04 #@! TO.C,D10*
G36*
X117701142Y-149452174D02*
X117724803Y-149455684D01*
X117748007Y-149461496D01*
X117770529Y-149469554D01*
X117792153Y-149479782D01*
X117812670Y-149492079D01*
X117831883Y-149506329D01*
X117849607Y-149522393D01*
X117865671Y-149540117D01*
X117879921Y-149559330D01*
X117892218Y-149579847D01*
X117902446Y-149601471D01*
X117910504Y-149623993D01*
X117916316Y-149647197D01*
X117919826Y-149670858D01*
X117921000Y-149694750D01*
X117921000Y-150182250D01*
X117919826Y-150206142D01*
X117916316Y-150229803D01*
X117910504Y-150253007D01*
X117902446Y-150275529D01*
X117892218Y-150297153D01*
X117879921Y-150317670D01*
X117865671Y-150336883D01*
X117849607Y-150354607D01*
X117831883Y-150370671D01*
X117812670Y-150384921D01*
X117792153Y-150397218D01*
X117770529Y-150407446D01*
X117748007Y-150415504D01*
X117724803Y-150421316D01*
X117701142Y-150424826D01*
X117677250Y-150426000D01*
X116764750Y-150426000D01*
X116740858Y-150424826D01*
X116717197Y-150421316D01*
X116693993Y-150415504D01*
X116671471Y-150407446D01*
X116649847Y-150397218D01*
X116629330Y-150384921D01*
X116610117Y-150370671D01*
X116592393Y-150354607D01*
X116576329Y-150336883D01*
X116562079Y-150317670D01*
X116549782Y-150297153D01*
X116539554Y-150275529D01*
X116531496Y-150253007D01*
X116525684Y-150229803D01*
X116522174Y-150206142D01*
X116521000Y-150182250D01*
X116521000Y-149694750D01*
X116522174Y-149670858D01*
X116525684Y-149647197D01*
X116531496Y-149623993D01*
X116539554Y-149601471D01*
X116549782Y-149579847D01*
X116562079Y-149559330D01*
X116576329Y-149540117D01*
X116592393Y-149522393D01*
X116610117Y-149506329D01*
X116629330Y-149492079D01*
X116649847Y-149479782D01*
X116671471Y-149469554D01*
X116693993Y-149461496D01*
X116717197Y-149455684D01*
X116740858Y-149452174D01*
X116764750Y-149451000D01*
X117677250Y-149451000D01*
X117701142Y-149452174D01*
X117701142Y-149452174D01*
G37*
D14*
G04 #@! TD*
G04 #@! TO.P,D10,2*
G04 #@! TO.N,Net-(D10-Pad2)*
X117221000Y-149938500D03*
D13*
G04 #@! TO.N,Net-(D10-Pad1)*
G04 #@! TO.C,D10*
G36*
X117701142Y-151327174D02*
X117724803Y-151330684D01*
X117748007Y-151336496D01*
X117770529Y-151344554D01*
X117792153Y-151354782D01*
X117812670Y-151367079D01*
X117831883Y-151381329D01*
X117849607Y-151397393D01*
X117865671Y-151415117D01*
X117879921Y-151434330D01*
X117892218Y-151454847D01*
X117902446Y-151476471D01*
X117910504Y-151498993D01*
X117916316Y-151522197D01*
X117919826Y-151545858D01*
X117921000Y-151569750D01*
X117921000Y-152057250D01*
X117919826Y-152081142D01*
X117916316Y-152104803D01*
X117910504Y-152128007D01*
X117902446Y-152150529D01*
X117892218Y-152172153D01*
X117879921Y-152192670D01*
X117865671Y-152211883D01*
X117849607Y-152229607D01*
X117831883Y-152245671D01*
X117812670Y-152259921D01*
X117792153Y-152272218D01*
X117770529Y-152282446D01*
X117748007Y-152290504D01*
X117724803Y-152296316D01*
X117701142Y-152299826D01*
X117677250Y-152301000D01*
X116764750Y-152301000D01*
X116740858Y-152299826D01*
X116717197Y-152296316D01*
X116693993Y-152290504D01*
X116671471Y-152282446D01*
X116649847Y-152272218D01*
X116629330Y-152259921D01*
X116610117Y-152245671D01*
X116592393Y-152229607D01*
X116576329Y-152211883D01*
X116562079Y-152192670D01*
X116549782Y-152172153D01*
X116539554Y-152150529D01*
X116531496Y-152128007D01*
X116525684Y-152104803D01*
X116522174Y-152081142D01*
X116521000Y-152057250D01*
X116521000Y-151569750D01*
X116522174Y-151545858D01*
X116525684Y-151522197D01*
X116531496Y-151498993D01*
X116539554Y-151476471D01*
X116549782Y-151454847D01*
X116562079Y-151434330D01*
X116576329Y-151415117D01*
X116592393Y-151397393D01*
X116610117Y-151381329D01*
X116629330Y-151367079D01*
X116649847Y-151354782D01*
X116671471Y-151344554D01*
X116693993Y-151336496D01*
X116717197Y-151330684D01*
X116740858Y-151327174D01*
X116764750Y-151326000D01*
X117677250Y-151326000D01*
X117701142Y-151327174D01*
X117701142Y-151327174D01*
G37*
D14*
G04 #@! TD*
G04 #@! TO.P,D10,1*
G04 #@! TO.N,Net-(D10-Pad1)*
X117221000Y-151813500D03*
D13*
G04 #@! TO.N,Net-(D1-Pad1)*
G04 #@! TO.C,D11*
G36*
X137005142Y-74824674D02*
X137028803Y-74828184D01*
X137052007Y-74833996D01*
X137074529Y-74842054D01*
X137096153Y-74852282D01*
X137116670Y-74864579D01*
X137135883Y-74878829D01*
X137153607Y-74894893D01*
X137169671Y-74912617D01*
X137183921Y-74931830D01*
X137196218Y-74952347D01*
X137206446Y-74973971D01*
X137214504Y-74996493D01*
X137220316Y-75019697D01*
X137223826Y-75043358D01*
X137225000Y-75067250D01*
X137225000Y-75554750D01*
X137223826Y-75578642D01*
X137220316Y-75602303D01*
X137214504Y-75625507D01*
X137206446Y-75648029D01*
X137196218Y-75669653D01*
X137183921Y-75690170D01*
X137169671Y-75709383D01*
X137153607Y-75727107D01*
X137135883Y-75743171D01*
X137116670Y-75757421D01*
X137096153Y-75769718D01*
X137074529Y-75779946D01*
X137052007Y-75788004D01*
X137028803Y-75793816D01*
X137005142Y-75797326D01*
X136981250Y-75798500D01*
X136068750Y-75798500D01*
X136044858Y-75797326D01*
X136021197Y-75793816D01*
X135997993Y-75788004D01*
X135975471Y-75779946D01*
X135953847Y-75769718D01*
X135933330Y-75757421D01*
X135914117Y-75743171D01*
X135896393Y-75727107D01*
X135880329Y-75709383D01*
X135866079Y-75690170D01*
X135853782Y-75669653D01*
X135843554Y-75648029D01*
X135835496Y-75625507D01*
X135829684Y-75602303D01*
X135826174Y-75578642D01*
X135825000Y-75554750D01*
X135825000Y-75067250D01*
X135826174Y-75043358D01*
X135829684Y-75019697D01*
X135835496Y-74996493D01*
X135843554Y-74973971D01*
X135853782Y-74952347D01*
X135866079Y-74931830D01*
X135880329Y-74912617D01*
X135896393Y-74894893D01*
X135914117Y-74878829D01*
X135933330Y-74864579D01*
X135953847Y-74852282D01*
X135975471Y-74842054D01*
X135997993Y-74833996D01*
X136021197Y-74828184D01*
X136044858Y-74824674D01*
X136068750Y-74823500D01*
X136981250Y-74823500D01*
X137005142Y-74824674D01*
X137005142Y-74824674D01*
G37*
D14*
G04 #@! TD*
G04 #@! TO.P,D11,1*
G04 #@! TO.N,Net-(D1-Pad1)*
X136525000Y-75311000D03*
D13*
G04 #@! TO.N,Net-(D11-Pad2)*
G04 #@! TO.C,D11*
G36*
X137005142Y-72949674D02*
X137028803Y-72953184D01*
X137052007Y-72958996D01*
X137074529Y-72967054D01*
X137096153Y-72977282D01*
X137116670Y-72989579D01*
X137135883Y-73003829D01*
X137153607Y-73019893D01*
X137169671Y-73037617D01*
X137183921Y-73056830D01*
X137196218Y-73077347D01*
X137206446Y-73098971D01*
X137214504Y-73121493D01*
X137220316Y-73144697D01*
X137223826Y-73168358D01*
X137225000Y-73192250D01*
X137225000Y-73679750D01*
X137223826Y-73703642D01*
X137220316Y-73727303D01*
X137214504Y-73750507D01*
X137206446Y-73773029D01*
X137196218Y-73794653D01*
X137183921Y-73815170D01*
X137169671Y-73834383D01*
X137153607Y-73852107D01*
X137135883Y-73868171D01*
X137116670Y-73882421D01*
X137096153Y-73894718D01*
X137074529Y-73904946D01*
X137052007Y-73913004D01*
X137028803Y-73918816D01*
X137005142Y-73922326D01*
X136981250Y-73923500D01*
X136068750Y-73923500D01*
X136044858Y-73922326D01*
X136021197Y-73918816D01*
X135997993Y-73913004D01*
X135975471Y-73904946D01*
X135953847Y-73894718D01*
X135933330Y-73882421D01*
X135914117Y-73868171D01*
X135896393Y-73852107D01*
X135880329Y-73834383D01*
X135866079Y-73815170D01*
X135853782Y-73794653D01*
X135843554Y-73773029D01*
X135835496Y-73750507D01*
X135829684Y-73727303D01*
X135826174Y-73703642D01*
X135825000Y-73679750D01*
X135825000Y-73192250D01*
X135826174Y-73168358D01*
X135829684Y-73144697D01*
X135835496Y-73121493D01*
X135843554Y-73098971D01*
X135853782Y-73077347D01*
X135866079Y-73056830D01*
X135880329Y-73037617D01*
X135896393Y-73019893D01*
X135914117Y-73003829D01*
X135933330Y-72989579D01*
X135953847Y-72977282D01*
X135975471Y-72967054D01*
X135997993Y-72958996D01*
X136021197Y-72953184D01*
X136044858Y-72949674D01*
X136068750Y-72948500D01*
X136981250Y-72948500D01*
X137005142Y-72949674D01*
X137005142Y-72949674D01*
G37*
D14*
G04 #@! TD*
G04 #@! TO.P,D11,2*
G04 #@! TO.N,Net-(D11-Pad2)*
X136525000Y-73436000D03*
D13*
G04 #@! TO.N,Net-(D12-Pad2)*
G04 #@! TO.C,D12*
G36*
X136878142Y-92253674D02*
X136901803Y-92257184D01*
X136925007Y-92262996D01*
X136947529Y-92271054D01*
X136969153Y-92281282D01*
X136989670Y-92293579D01*
X137008883Y-92307829D01*
X137026607Y-92323893D01*
X137042671Y-92341617D01*
X137056921Y-92360830D01*
X137069218Y-92381347D01*
X137079446Y-92402971D01*
X137087504Y-92425493D01*
X137093316Y-92448697D01*
X137096826Y-92472358D01*
X137098000Y-92496250D01*
X137098000Y-92983750D01*
X137096826Y-93007642D01*
X137093316Y-93031303D01*
X137087504Y-93054507D01*
X137079446Y-93077029D01*
X137069218Y-93098653D01*
X137056921Y-93119170D01*
X137042671Y-93138383D01*
X137026607Y-93156107D01*
X137008883Y-93172171D01*
X136989670Y-93186421D01*
X136969153Y-93198718D01*
X136947529Y-93208946D01*
X136925007Y-93217004D01*
X136901803Y-93222816D01*
X136878142Y-93226326D01*
X136854250Y-93227500D01*
X135941750Y-93227500D01*
X135917858Y-93226326D01*
X135894197Y-93222816D01*
X135870993Y-93217004D01*
X135848471Y-93208946D01*
X135826847Y-93198718D01*
X135806330Y-93186421D01*
X135787117Y-93172171D01*
X135769393Y-93156107D01*
X135753329Y-93138383D01*
X135739079Y-93119170D01*
X135726782Y-93098653D01*
X135716554Y-93077029D01*
X135708496Y-93054507D01*
X135702684Y-93031303D01*
X135699174Y-93007642D01*
X135698000Y-92983750D01*
X135698000Y-92496250D01*
X135699174Y-92472358D01*
X135702684Y-92448697D01*
X135708496Y-92425493D01*
X135716554Y-92402971D01*
X135726782Y-92381347D01*
X135739079Y-92360830D01*
X135753329Y-92341617D01*
X135769393Y-92323893D01*
X135787117Y-92307829D01*
X135806330Y-92293579D01*
X135826847Y-92281282D01*
X135848471Y-92271054D01*
X135870993Y-92262996D01*
X135894197Y-92257184D01*
X135917858Y-92253674D01*
X135941750Y-92252500D01*
X136854250Y-92252500D01*
X136878142Y-92253674D01*
X136878142Y-92253674D01*
G37*
D14*
G04 #@! TD*
G04 #@! TO.P,D12,2*
G04 #@! TO.N,Net-(D12-Pad2)*
X136398000Y-92740000D03*
D13*
G04 #@! TO.N,Net-(D12-Pad1)*
G04 #@! TO.C,D12*
G36*
X136878142Y-94128674D02*
X136901803Y-94132184D01*
X136925007Y-94137996D01*
X136947529Y-94146054D01*
X136969153Y-94156282D01*
X136989670Y-94168579D01*
X137008883Y-94182829D01*
X137026607Y-94198893D01*
X137042671Y-94216617D01*
X137056921Y-94235830D01*
X137069218Y-94256347D01*
X137079446Y-94277971D01*
X137087504Y-94300493D01*
X137093316Y-94323697D01*
X137096826Y-94347358D01*
X137098000Y-94371250D01*
X137098000Y-94858750D01*
X137096826Y-94882642D01*
X137093316Y-94906303D01*
X137087504Y-94929507D01*
X137079446Y-94952029D01*
X137069218Y-94973653D01*
X137056921Y-94994170D01*
X137042671Y-95013383D01*
X137026607Y-95031107D01*
X137008883Y-95047171D01*
X136989670Y-95061421D01*
X136969153Y-95073718D01*
X136947529Y-95083946D01*
X136925007Y-95092004D01*
X136901803Y-95097816D01*
X136878142Y-95101326D01*
X136854250Y-95102500D01*
X135941750Y-95102500D01*
X135917858Y-95101326D01*
X135894197Y-95097816D01*
X135870993Y-95092004D01*
X135848471Y-95083946D01*
X135826847Y-95073718D01*
X135806330Y-95061421D01*
X135787117Y-95047171D01*
X135769393Y-95031107D01*
X135753329Y-95013383D01*
X135739079Y-94994170D01*
X135726782Y-94973653D01*
X135716554Y-94952029D01*
X135708496Y-94929507D01*
X135702684Y-94906303D01*
X135699174Y-94882642D01*
X135698000Y-94858750D01*
X135698000Y-94371250D01*
X135699174Y-94347358D01*
X135702684Y-94323697D01*
X135708496Y-94300493D01*
X135716554Y-94277971D01*
X135726782Y-94256347D01*
X135739079Y-94235830D01*
X135753329Y-94216617D01*
X135769393Y-94198893D01*
X135787117Y-94182829D01*
X135806330Y-94168579D01*
X135826847Y-94156282D01*
X135848471Y-94146054D01*
X135870993Y-94137996D01*
X135894197Y-94132184D01*
X135917858Y-94128674D01*
X135941750Y-94127500D01*
X136854250Y-94127500D01*
X136878142Y-94128674D01*
X136878142Y-94128674D01*
G37*
D14*
G04 #@! TD*
G04 #@! TO.P,D12,1*
G04 #@! TO.N,Net-(D12-Pad1)*
X136398000Y-94615000D03*
D13*
G04 #@! TO.N,Net-(D13-Pad1)*
G04 #@! TO.C,D13*
G36*
X137132142Y-112924674D02*
X137155803Y-112928184D01*
X137179007Y-112933996D01*
X137201529Y-112942054D01*
X137223153Y-112952282D01*
X137243670Y-112964579D01*
X137262883Y-112978829D01*
X137280607Y-112994893D01*
X137296671Y-113012617D01*
X137310921Y-113031830D01*
X137323218Y-113052347D01*
X137333446Y-113073971D01*
X137341504Y-113096493D01*
X137347316Y-113119697D01*
X137350826Y-113143358D01*
X137352000Y-113167250D01*
X137352000Y-113654750D01*
X137350826Y-113678642D01*
X137347316Y-113702303D01*
X137341504Y-113725507D01*
X137333446Y-113748029D01*
X137323218Y-113769653D01*
X137310921Y-113790170D01*
X137296671Y-113809383D01*
X137280607Y-113827107D01*
X137262883Y-113843171D01*
X137243670Y-113857421D01*
X137223153Y-113869718D01*
X137201529Y-113879946D01*
X137179007Y-113888004D01*
X137155803Y-113893816D01*
X137132142Y-113897326D01*
X137108250Y-113898500D01*
X136195750Y-113898500D01*
X136171858Y-113897326D01*
X136148197Y-113893816D01*
X136124993Y-113888004D01*
X136102471Y-113879946D01*
X136080847Y-113869718D01*
X136060330Y-113857421D01*
X136041117Y-113843171D01*
X136023393Y-113827107D01*
X136007329Y-113809383D01*
X135993079Y-113790170D01*
X135980782Y-113769653D01*
X135970554Y-113748029D01*
X135962496Y-113725507D01*
X135956684Y-113702303D01*
X135953174Y-113678642D01*
X135952000Y-113654750D01*
X135952000Y-113167250D01*
X135953174Y-113143358D01*
X135956684Y-113119697D01*
X135962496Y-113096493D01*
X135970554Y-113073971D01*
X135980782Y-113052347D01*
X135993079Y-113031830D01*
X136007329Y-113012617D01*
X136023393Y-112994893D01*
X136041117Y-112978829D01*
X136060330Y-112964579D01*
X136080847Y-112952282D01*
X136102471Y-112942054D01*
X136124993Y-112933996D01*
X136148197Y-112928184D01*
X136171858Y-112924674D01*
X136195750Y-112923500D01*
X137108250Y-112923500D01*
X137132142Y-112924674D01*
X137132142Y-112924674D01*
G37*
D14*
G04 #@! TD*
G04 #@! TO.P,D13,1*
G04 #@! TO.N,Net-(D13-Pad1)*
X136652000Y-113411000D03*
D13*
G04 #@! TO.N,Net-(D13-Pad2)*
G04 #@! TO.C,D13*
G36*
X137132142Y-111049674D02*
X137155803Y-111053184D01*
X137179007Y-111058996D01*
X137201529Y-111067054D01*
X137223153Y-111077282D01*
X137243670Y-111089579D01*
X137262883Y-111103829D01*
X137280607Y-111119893D01*
X137296671Y-111137617D01*
X137310921Y-111156830D01*
X137323218Y-111177347D01*
X137333446Y-111198971D01*
X137341504Y-111221493D01*
X137347316Y-111244697D01*
X137350826Y-111268358D01*
X137352000Y-111292250D01*
X137352000Y-111779750D01*
X137350826Y-111803642D01*
X137347316Y-111827303D01*
X137341504Y-111850507D01*
X137333446Y-111873029D01*
X137323218Y-111894653D01*
X137310921Y-111915170D01*
X137296671Y-111934383D01*
X137280607Y-111952107D01*
X137262883Y-111968171D01*
X137243670Y-111982421D01*
X137223153Y-111994718D01*
X137201529Y-112004946D01*
X137179007Y-112013004D01*
X137155803Y-112018816D01*
X137132142Y-112022326D01*
X137108250Y-112023500D01*
X136195750Y-112023500D01*
X136171858Y-112022326D01*
X136148197Y-112018816D01*
X136124993Y-112013004D01*
X136102471Y-112004946D01*
X136080847Y-111994718D01*
X136060330Y-111982421D01*
X136041117Y-111968171D01*
X136023393Y-111952107D01*
X136007329Y-111934383D01*
X135993079Y-111915170D01*
X135980782Y-111894653D01*
X135970554Y-111873029D01*
X135962496Y-111850507D01*
X135956684Y-111827303D01*
X135953174Y-111803642D01*
X135952000Y-111779750D01*
X135952000Y-111292250D01*
X135953174Y-111268358D01*
X135956684Y-111244697D01*
X135962496Y-111221493D01*
X135970554Y-111198971D01*
X135980782Y-111177347D01*
X135993079Y-111156830D01*
X136007329Y-111137617D01*
X136023393Y-111119893D01*
X136041117Y-111103829D01*
X136060330Y-111089579D01*
X136080847Y-111077282D01*
X136102471Y-111067054D01*
X136124993Y-111058996D01*
X136148197Y-111053184D01*
X136171858Y-111049674D01*
X136195750Y-111048500D01*
X137108250Y-111048500D01*
X137132142Y-111049674D01*
X137132142Y-111049674D01*
G37*
D14*
G04 #@! TD*
G04 #@! TO.P,D13,2*
G04 #@! TO.N,Net-(D13-Pad2)*
X136652000Y-111536000D03*
D13*
G04 #@! TO.N,Net-(D14-Pad2)*
G04 #@! TO.C,D14*
G36*
X136751142Y-130226674D02*
X136774803Y-130230184D01*
X136798007Y-130235996D01*
X136820529Y-130244054D01*
X136842153Y-130254282D01*
X136862670Y-130266579D01*
X136881883Y-130280829D01*
X136899607Y-130296893D01*
X136915671Y-130314617D01*
X136929921Y-130333830D01*
X136942218Y-130354347D01*
X136952446Y-130375971D01*
X136960504Y-130398493D01*
X136966316Y-130421697D01*
X136969826Y-130445358D01*
X136971000Y-130469250D01*
X136971000Y-130956750D01*
X136969826Y-130980642D01*
X136966316Y-131004303D01*
X136960504Y-131027507D01*
X136952446Y-131050029D01*
X136942218Y-131071653D01*
X136929921Y-131092170D01*
X136915671Y-131111383D01*
X136899607Y-131129107D01*
X136881883Y-131145171D01*
X136862670Y-131159421D01*
X136842153Y-131171718D01*
X136820529Y-131181946D01*
X136798007Y-131190004D01*
X136774803Y-131195816D01*
X136751142Y-131199326D01*
X136727250Y-131200500D01*
X135814750Y-131200500D01*
X135790858Y-131199326D01*
X135767197Y-131195816D01*
X135743993Y-131190004D01*
X135721471Y-131181946D01*
X135699847Y-131171718D01*
X135679330Y-131159421D01*
X135660117Y-131145171D01*
X135642393Y-131129107D01*
X135626329Y-131111383D01*
X135612079Y-131092170D01*
X135599782Y-131071653D01*
X135589554Y-131050029D01*
X135581496Y-131027507D01*
X135575684Y-131004303D01*
X135572174Y-130980642D01*
X135571000Y-130956750D01*
X135571000Y-130469250D01*
X135572174Y-130445358D01*
X135575684Y-130421697D01*
X135581496Y-130398493D01*
X135589554Y-130375971D01*
X135599782Y-130354347D01*
X135612079Y-130333830D01*
X135626329Y-130314617D01*
X135642393Y-130296893D01*
X135660117Y-130280829D01*
X135679330Y-130266579D01*
X135699847Y-130254282D01*
X135721471Y-130244054D01*
X135743993Y-130235996D01*
X135767197Y-130230184D01*
X135790858Y-130226674D01*
X135814750Y-130225500D01*
X136727250Y-130225500D01*
X136751142Y-130226674D01*
X136751142Y-130226674D01*
G37*
D14*
G04 #@! TD*
G04 #@! TO.P,D14,2*
G04 #@! TO.N,Net-(D14-Pad2)*
X136271000Y-130713000D03*
D13*
G04 #@! TO.N,Net-(D14-Pad1)*
G04 #@! TO.C,D14*
G36*
X136751142Y-132101674D02*
X136774803Y-132105184D01*
X136798007Y-132110996D01*
X136820529Y-132119054D01*
X136842153Y-132129282D01*
X136862670Y-132141579D01*
X136881883Y-132155829D01*
X136899607Y-132171893D01*
X136915671Y-132189617D01*
X136929921Y-132208830D01*
X136942218Y-132229347D01*
X136952446Y-132250971D01*
X136960504Y-132273493D01*
X136966316Y-132296697D01*
X136969826Y-132320358D01*
X136971000Y-132344250D01*
X136971000Y-132831750D01*
X136969826Y-132855642D01*
X136966316Y-132879303D01*
X136960504Y-132902507D01*
X136952446Y-132925029D01*
X136942218Y-132946653D01*
X136929921Y-132967170D01*
X136915671Y-132986383D01*
X136899607Y-133004107D01*
X136881883Y-133020171D01*
X136862670Y-133034421D01*
X136842153Y-133046718D01*
X136820529Y-133056946D01*
X136798007Y-133065004D01*
X136774803Y-133070816D01*
X136751142Y-133074326D01*
X136727250Y-133075500D01*
X135814750Y-133075500D01*
X135790858Y-133074326D01*
X135767197Y-133070816D01*
X135743993Y-133065004D01*
X135721471Y-133056946D01*
X135699847Y-133046718D01*
X135679330Y-133034421D01*
X135660117Y-133020171D01*
X135642393Y-133004107D01*
X135626329Y-132986383D01*
X135612079Y-132967170D01*
X135599782Y-132946653D01*
X135589554Y-132925029D01*
X135581496Y-132902507D01*
X135575684Y-132879303D01*
X135572174Y-132855642D01*
X135571000Y-132831750D01*
X135571000Y-132344250D01*
X135572174Y-132320358D01*
X135575684Y-132296697D01*
X135581496Y-132273493D01*
X135589554Y-132250971D01*
X135599782Y-132229347D01*
X135612079Y-132208830D01*
X135626329Y-132189617D01*
X135642393Y-132171893D01*
X135660117Y-132155829D01*
X135679330Y-132141579D01*
X135699847Y-132129282D01*
X135721471Y-132119054D01*
X135743993Y-132110996D01*
X135767197Y-132105184D01*
X135790858Y-132101674D01*
X135814750Y-132100500D01*
X136727250Y-132100500D01*
X136751142Y-132101674D01*
X136751142Y-132101674D01*
G37*
D14*
G04 #@! TD*
G04 #@! TO.P,D14,1*
G04 #@! TO.N,Net-(D14-Pad1)*
X136271000Y-132588000D03*
D13*
G04 #@! TO.N,Net-(D10-Pad1)*
G04 #@! TO.C,D15*
G36*
X136497142Y-151327174D02*
X136520803Y-151330684D01*
X136544007Y-151336496D01*
X136566529Y-151344554D01*
X136588153Y-151354782D01*
X136608670Y-151367079D01*
X136627883Y-151381329D01*
X136645607Y-151397393D01*
X136661671Y-151415117D01*
X136675921Y-151434330D01*
X136688218Y-151454847D01*
X136698446Y-151476471D01*
X136706504Y-151498993D01*
X136712316Y-151522197D01*
X136715826Y-151545858D01*
X136717000Y-151569750D01*
X136717000Y-152057250D01*
X136715826Y-152081142D01*
X136712316Y-152104803D01*
X136706504Y-152128007D01*
X136698446Y-152150529D01*
X136688218Y-152172153D01*
X136675921Y-152192670D01*
X136661671Y-152211883D01*
X136645607Y-152229607D01*
X136627883Y-152245671D01*
X136608670Y-152259921D01*
X136588153Y-152272218D01*
X136566529Y-152282446D01*
X136544007Y-152290504D01*
X136520803Y-152296316D01*
X136497142Y-152299826D01*
X136473250Y-152301000D01*
X135560750Y-152301000D01*
X135536858Y-152299826D01*
X135513197Y-152296316D01*
X135489993Y-152290504D01*
X135467471Y-152282446D01*
X135445847Y-152272218D01*
X135425330Y-152259921D01*
X135406117Y-152245671D01*
X135388393Y-152229607D01*
X135372329Y-152211883D01*
X135358079Y-152192670D01*
X135345782Y-152172153D01*
X135335554Y-152150529D01*
X135327496Y-152128007D01*
X135321684Y-152104803D01*
X135318174Y-152081142D01*
X135317000Y-152057250D01*
X135317000Y-151569750D01*
X135318174Y-151545858D01*
X135321684Y-151522197D01*
X135327496Y-151498993D01*
X135335554Y-151476471D01*
X135345782Y-151454847D01*
X135358079Y-151434330D01*
X135372329Y-151415117D01*
X135388393Y-151397393D01*
X135406117Y-151381329D01*
X135425330Y-151367079D01*
X135445847Y-151354782D01*
X135467471Y-151344554D01*
X135489993Y-151336496D01*
X135513197Y-151330684D01*
X135536858Y-151327174D01*
X135560750Y-151326000D01*
X136473250Y-151326000D01*
X136497142Y-151327174D01*
X136497142Y-151327174D01*
G37*
D14*
G04 #@! TD*
G04 #@! TO.P,D15,1*
G04 #@! TO.N,Net-(D10-Pad1)*
X136017000Y-151813500D03*
D13*
G04 #@! TO.N,Net-(D15-Pad2)*
G04 #@! TO.C,D15*
G36*
X136497142Y-149452174D02*
X136520803Y-149455684D01*
X136544007Y-149461496D01*
X136566529Y-149469554D01*
X136588153Y-149479782D01*
X136608670Y-149492079D01*
X136627883Y-149506329D01*
X136645607Y-149522393D01*
X136661671Y-149540117D01*
X136675921Y-149559330D01*
X136688218Y-149579847D01*
X136698446Y-149601471D01*
X136706504Y-149623993D01*
X136712316Y-149647197D01*
X136715826Y-149670858D01*
X136717000Y-149694750D01*
X136717000Y-150182250D01*
X136715826Y-150206142D01*
X136712316Y-150229803D01*
X136706504Y-150253007D01*
X136698446Y-150275529D01*
X136688218Y-150297153D01*
X136675921Y-150317670D01*
X136661671Y-150336883D01*
X136645607Y-150354607D01*
X136627883Y-150370671D01*
X136608670Y-150384921D01*
X136588153Y-150397218D01*
X136566529Y-150407446D01*
X136544007Y-150415504D01*
X136520803Y-150421316D01*
X136497142Y-150424826D01*
X136473250Y-150426000D01*
X135560750Y-150426000D01*
X135536858Y-150424826D01*
X135513197Y-150421316D01*
X135489993Y-150415504D01*
X135467471Y-150407446D01*
X135445847Y-150397218D01*
X135425330Y-150384921D01*
X135406117Y-150370671D01*
X135388393Y-150354607D01*
X135372329Y-150336883D01*
X135358079Y-150317670D01*
X135345782Y-150297153D01*
X135335554Y-150275529D01*
X135327496Y-150253007D01*
X135321684Y-150229803D01*
X135318174Y-150206142D01*
X135317000Y-150182250D01*
X135317000Y-149694750D01*
X135318174Y-149670858D01*
X135321684Y-149647197D01*
X135327496Y-149623993D01*
X135335554Y-149601471D01*
X135345782Y-149579847D01*
X135358079Y-149559330D01*
X135372329Y-149540117D01*
X135388393Y-149522393D01*
X135406117Y-149506329D01*
X135425330Y-149492079D01*
X135445847Y-149479782D01*
X135467471Y-149469554D01*
X135489993Y-149461496D01*
X135513197Y-149455684D01*
X135536858Y-149452174D01*
X135560750Y-149451000D01*
X136473250Y-149451000D01*
X136497142Y-149452174D01*
X136497142Y-149452174D01*
G37*
D14*
G04 #@! TD*
G04 #@! TO.P,D15,2*
G04 #@! TO.N,Net-(D15-Pad2)*
X136017000Y-149938500D03*
D13*
G04 #@! TO.N,Net-(D16-Pad2)*
G04 #@! TO.C,R1*
G36*
X100265142Y-64149674D02*
X100288803Y-64153184D01*
X100312007Y-64158996D01*
X100334529Y-64167054D01*
X100356153Y-64177282D01*
X100376670Y-64189579D01*
X100395883Y-64203829D01*
X100413607Y-64219893D01*
X100429671Y-64237617D01*
X100443921Y-64256830D01*
X100456218Y-64277347D01*
X100466446Y-64298971D01*
X100474504Y-64321493D01*
X100480316Y-64344697D01*
X100483826Y-64368358D01*
X100485000Y-64392250D01*
X100485000Y-65304750D01*
X100483826Y-65328642D01*
X100480316Y-65352303D01*
X100474504Y-65375507D01*
X100466446Y-65398029D01*
X100456218Y-65419653D01*
X100443921Y-65440170D01*
X100429671Y-65459383D01*
X100413607Y-65477107D01*
X100395883Y-65493171D01*
X100376670Y-65507421D01*
X100356153Y-65519718D01*
X100334529Y-65529946D01*
X100312007Y-65538004D01*
X100288803Y-65543816D01*
X100265142Y-65547326D01*
X100241250Y-65548500D01*
X99753750Y-65548500D01*
X99729858Y-65547326D01*
X99706197Y-65543816D01*
X99682993Y-65538004D01*
X99660471Y-65529946D01*
X99638847Y-65519718D01*
X99618330Y-65507421D01*
X99599117Y-65493171D01*
X99581393Y-65477107D01*
X99565329Y-65459383D01*
X99551079Y-65440170D01*
X99538782Y-65419653D01*
X99528554Y-65398029D01*
X99520496Y-65375507D01*
X99514684Y-65352303D01*
X99511174Y-65328642D01*
X99510000Y-65304750D01*
X99510000Y-64392250D01*
X99511174Y-64368358D01*
X99514684Y-64344697D01*
X99520496Y-64321493D01*
X99528554Y-64298971D01*
X99538782Y-64277347D01*
X99551079Y-64256830D01*
X99565329Y-64237617D01*
X99581393Y-64219893D01*
X99599117Y-64203829D01*
X99618330Y-64189579D01*
X99638847Y-64177282D01*
X99660471Y-64167054D01*
X99682993Y-64158996D01*
X99706197Y-64153184D01*
X99729858Y-64149674D01*
X99753750Y-64148500D01*
X100241250Y-64148500D01*
X100265142Y-64149674D01*
X100265142Y-64149674D01*
G37*
D14*
G04 #@! TD*
G04 #@! TO.P,R1,2*
G04 #@! TO.N,Net-(D16-Pad2)*
X99997500Y-64848500D03*
D13*
G04 #@! TO.N,Net-(J6-Pad3)*
G04 #@! TO.C,R1*
G36*
X98390142Y-64149674D02*
X98413803Y-64153184D01*
X98437007Y-64158996D01*
X98459529Y-64167054D01*
X98481153Y-64177282D01*
X98501670Y-64189579D01*
X98520883Y-64203829D01*
X98538607Y-64219893D01*
X98554671Y-64237617D01*
X98568921Y-64256830D01*
X98581218Y-64277347D01*
X98591446Y-64298971D01*
X98599504Y-64321493D01*
X98605316Y-64344697D01*
X98608826Y-64368358D01*
X98610000Y-64392250D01*
X98610000Y-65304750D01*
X98608826Y-65328642D01*
X98605316Y-65352303D01*
X98599504Y-65375507D01*
X98591446Y-65398029D01*
X98581218Y-65419653D01*
X98568921Y-65440170D01*
X98554671Y-65459383D01*
X98538607Y-65477107D01*
X98520883Y-65493171D01*
X98501670Y-65507421D01*
X98481153Y-65519718D01*
X98459529Y-65529946D01*
X98437007Y-65538004D01*
X98413803Y-65543816D01*
X98390142Y-65547326D01*
X98366250Y-65548500D01*
X97878750Y-65548500D01*
X97854858Y-65547326D01*
X97831197Y-65543816D01*
X97807993Y-65538004D01*
X97785471Y-65529946D01*
X97763847Y-65519718D01*
X97743330Y-65507421D01*
X97724117Y-65493171D01*
X97706393Y-65477107D01*
X97690329Y-65459383D01*
X97676079Y-65440170D01*
X97663782Y-65419653D01*
X97653554Y-65398029D01*
X97645496Y-65375507D01*
X97639684Y-65352303D01*
X97636174Y-65328642D01*
X97635000Y-65304750D01*
X97635000Y-64392250D01*
X97636174Y-64368358D01*
X97639684Y-64344697D01*
X97645496Y-64321493D01*
X97653554Y-64298971D01*
X97663782Y-64277347D01*
X97676079Y-64256830D01*
X97690329Y-64237617D01*
X97706393Y-64219893D01*
X97724117Y-64203829D01*
X97743330Y-64189579D01*
X97763847Y-64177282D01*
X97785471Y-64167054D01*
X97807993Y-64158996D01*
X97831197Y-64153184D01*
X97854858Y-64149674D01*
X97878750Y-64148500D01*
X98366250Y-64148500D01*
X98390142Y-64149674D01*
X98390142Y-64149674D01*
G37*
D14*
G04 #@! TD*
G04 #@! TO.P,R1,1*
G04 #@! TO.N,Net-(J6-Pad3)*
X98122500Y-64848500D03*
D13*
G04 #@! TO.N,Net-(D21-Pad2)*
G04 #@! TO.C,R2*
G36*
X118807142Y-64022674D02*
X118830803Y-64026184D01*
X118854007Y-64031996D01*
X118876529Y-64040054D01*
X118898153Y-64050282D01*
X118918670Y-64062579D01*
X118937883Y-64076829D01*
X118955607Y-64092893D01*
X118971671Y-64110617D01*
X118985921Y-64129830D01*
X118998218Y-64150347D01*
X119008446Y-64171971D01*
X119016504Y-64194493D01*
X119022316Y-64217697D01*
X119025826Y-64241358D01*
X119027000Y-64265250D01*
X119027000Y-65177750D01*
X119025826Y-65201642D01*
X119022316Y-65225303D01*
X119016504Y-65248507D01*
X119008446Y-65271029D01*
X118998218Y-65292653D01*
X118985921Y-65313170D01*
X118971671Y-65332383D01*
X118955607Y-65350107D01*
X118937883Y-65366171D01*
X118918670Y-65380421D01*
X118898153Y-65392718D01*
X118876529Y-65402946D01*
X118854007Y-65411004D01*
X118830803Y-65416816D01*
X118807142Y-65420326D01*
X118783250Y-65421500D01*
X118295750Y-65421500D01*
X118271858Y-65420326D01*
X118248197Y-65416816D01*
X118224993Y-65411004D01*
X118202471Y-65402946D01*
X118180847Y-65392718D01*
X118160330Y-65380421D01*
X118141117Y-65366171D01*
X118123393Y-65350107D01*
X118107329Y-65332383D01*
X118093079Y-65313170D01*
X118080782Y-65292653D01*
X118070554Y-65271029D01*
X118062496Y-65248507D01*
X118056684Y-65225303D01*
X118053174Y-65201642D01*
X118052000Y-65177750D01*
X118052000Y-64265250D01*
X118053174Y-64241358D01*
X118056684Y-64217697D01*
X118062496Y-64194493D01*
X118070554Y-64171971D01*
X118080782Y-64150347D01*
X118093079Y-64129830D01*
X118107329Y-64110617D01*
X118123393Y-64092893D01*
X118141117Y-64076829D01*
X118160330Y-64062579D01*
X118180847Y-64050282D01*
X118202471Y-64040054D01*
X118224993Y-64031996D01*
X118248197Y-64026184D01*
X118271858Y-64022674D01*
X118295750Y-64021500D01*
X118783250Y-64021500D01*
X118807142Y-64022674D01*
X118807142Y-64022674D01*
G37*
D14*
G04 #@! TD*
G04 #@! TO.P,R2,2*
G04 #@! TO.N,Net-(D21-Pad2)*
X118539500Y-64721500D03*
D13*
G04 #@! TO.N,Net-(J6-Pad2)*
G04 #@! TO.C,R2*
G36*
X116932142Y-64022674D02*
X116955803Y-64026184D01*
X116979007Y-64031996D01*
X117001529Y-64040054D01*
X117023153Y-64050282D01*
X117043670Y-64062579D01*
X117062883Y-64076829D01*
X117080607Y-64092893D01*
X117096671Y-64110617D01*
X117110921Y-64129830D01*
X117123218Y-64150347D01*
X117133446Y-64171971D01*
X117141504Y-64194493D01*
X117147316Y-64217697D01*
X117150826Y-64241358D01*
X117152000Y-64265250D01*
X117152000Y-65177750D01*
X117150826Y-65201642D01*
X117147316Y-65225303D01*
X117141504Y-65248507D01*
X117133446Y-65271029D01*
X117123218Y-65292653D01*
X117110921Y-65313170D01*
X117096671Y-65332383D01*
X117080607Y-65350107D01*
X117062883Y-65366171D01*
X117043670Y-65380421D01*
X117023153Y-65392718D01*
X117001529Y-65402946D01*
X116979007Y-65411004D01*
X116955803Y-65416816D01*
X116932142Y-65420326D01*
X116908250Y-65421500D01*
X116420750Y-65421500D01*
X116396858Y-65420326D01*
X116373197Y-65416816D01*
X116349993Y-65411004D01*
X116327471Y-65402946D01*
X116305847Y-65392718D01*
X116285330Y-65380421D01*
X116266117Y-65366171D01*
X116248393Y-65350107D01*
X116232329Y-65332383D01*
X116218079Y-65313170D01*
X116205782Y-65292653D01*
X116195554Y-65271029D01*
X116187496Y-65248507D01*
X116181684Y-65225303D01*
X116178174Y-65201642D01*
X116177000Y-65177750D01*
X116177000Y-64265250D01*
X116178174Y-64241358D01*
X116181684Y-64217697D01*
X116187496Y-64194493D01*
X116195554Y-64171971D01*
X116205782Y-64150347D01*
X116218079Y-64129830D01*
X116232329Y-64110617D01*
X116248393Y-64092893D01*
X116266117Y-64076829D01*
X116285330Y-64062579D01*
X116305847Y-64050282D01*
X116327471Y-64040054D01*
X116349993Y-64031996D01*
X116373197Y-64026184D01*
X116396858Y-64022674D01*
X116420750Y-64021500D01*
X116908250Y-64021500D01*
X116932142Y-64022674D01*
X116932142Y-64022674D01*
G37*
D14*
G04 #@! TD*
G04 #@! TO.P,R2,1*
G04 #@! TO.N,Net-(J6-Pad2)*
X116664500Y-64721500D03*
D13*
G04 #@! TO.N,Net-(D26-Pad2)*
G04 #@! TO.C,R3*
G36*
X138238142Y-64403674D02*
X138261803Y-64407184D01*
X138285007Y-64412996D01*
X138307529Y-64421054D01*
X138329153Y-64431282D01*
X138349670Y-64443579D01*
X138368883Y-64457829D01*
X138386607Y-64473893D01*
X138402671Y-64491617D01*
X138416921Y-64510830D01*
X138429218Y-64531347D01*
X138439446Y-64552971D01*
X138447504Y-64575493D01*
X138453316Y-64598697D01*
X138456826Y-64622358D01*
X138458000Y-64646250D01*
X138458000Y-65558750D01*
X138456826Y-65582642D01*
X138453316Y-65606303D01*
X138447504Y-65629507D01*
X138439446Y-65652029D01*
X138429218Y-65673653D01*
X138416921Y-65694170D01*
X138402671Y-65713383D01*
X138386607Y-65731107D01*
X138368883Y-65747171D01*
X138349670Y-65761421D01*
X138329153Y-65773718D01*
X138307529Y-65783946D01*
X138285007Y-65792004D01*
X138261803Y-65797816D01*
X138238142Y-65801326D01*
X138214250Y-65802500D01*
X137726750Y-65802500D01*
X137702858Y-65801326D01*
X137679197Y-65797816D01*
X137655993Y-65792004D01*
X137633471Y-65783946D01*
X137611847Y-65773718D01*
X137591330Y-65761421D01*
X137572117Y-65747171D01*
X137554393Y-65731107D01*
X137538329Y-65713383D01*
X137524079Y-65694170D01*
X137511782Y-65673653D01*
X137501554Y-65652029D01*
X137493496Y-65629507D01*
X137487684Y-65606303D01*
X137484174Y-65582642D01*
X137483000Y-65558750D01*
X137483000Y-64646250D01*
X137484174Y-64622358D01*
X137487684Y-64598697D01*
X137493496Y-64575493D01*
X137501554Y-64552971D01*
X137511782Y-64531347D01*
X137524079Y-64510830D01*
X137538329Y-64491617D01*
X137554393Y-64473893D01*
X137572117Y-64457829D01*
X137591330Y-64443579D01*
X137611847Y-64431282D01*
X137633471Y-64421054D01*
X137655993Y-64412996D01*
X137679197Y-64407184D01*
X137702858Y-64403674D01*
X137726750Y-64402500D01*
X138214250Y-64402500D01*
X138238142Y-64403674D01*
X138238142Y-64403674D01*
G37*
D14*
G04 #@! TD*
G04 #@! TO.P,R3,2*
G04 #@! TO.N,Net-(D26-Pad2)*
X137970500Y-65102500D03*
D13*
G04 #@! TO.N,Net-(J6-Pad1)*
G04 #@! TO.C,R3*
G36*
X136363142Y-64403674D02*
X136386803Y-64407184D01*
X136410007Y-64412996D01*
X136432529Y-64421054D01*
X136454153Y-64431282D01*
X136474670Y-64443579D01*
X136493883Y-64457829D01*
X136511607Y-64473893D01*
X136527671Y-64491617D01*
X136541921Y-64510830D01*
X136554218Y-64531347D01*
X136564446Y-64552971D01*
X136572504Y-64575493D01*
X136578316Y-64598697D01*
X136581826Y-64622358D01*
X136583000Y-64646250D01*
X136583000Y-65558750D01*
X136581826Y-65582642D01*
X136578316Y-65606303D01*
X136572504Y-65629507D01*
X136564446Y-65652029D01*
X136554218Y-65673653D01*
X136541921Y-65694170D01*
X136527671Y-65713383D01*
X136511607Y-65731107D01*
X136493883Y-65747171D01*
X136474670Y-65761421D01*
X136454153Y-65773718D01*
X136432529Y-65783946D01*
X136410007Y-65792004D01*
X136386803Y-65797816D01*
X136363142Y-65801326D01*
X136339250Y-65802500D01*
X135851750Y-65802500D01*
X135827858Y-65801326D01*
X135804197Y-65797816D01*
X135780993Y-65792004D01*
X135758471Y-65783946D01*
X135736847Y-65773718D01*
X135716330Y-65761421D01*
X135697117Y-65747171D01*
X135679393Y-65731107D01*
X135663329Y-65713383D01*
X135649079Y-65694170D01*
X135636782Y-65673653D01*
X135626554Y-65652029D01*
X135618496Y-65629507D01*
X135612684Y-65606303D01*
X135609174Y-65582642D01*
X135608000Y-65558750D01*
X135608000Y-64646250D01*
X135609174Y-64622358D01*
X135612684Y-64598697D01*
X135618496Y-64575493D01*
X135626554Y-64552971D01*
X135636782Y-64531347D01*
X135649079Y-64510830D01*
X135663329Y-64491617D01*
X135679393Y-64473893D01*
X135697117Y-64457829D01*
X135716330Y-64443579D01*
X135736847Y-64431282D01*
X135758471Y-64421054D01*
X135780993Y-64412996D01*
X135804197Y-64407184D01*
X135827858Y-64403674D01*
X135851750Y-64402500D01*
X136339250Y-64402500D01*
X136363142Y-64403674D01*
X136363142Y-64403674D01*
G37*
D14*
G04 #@! TD*
G04 #@! TO.P,R3,1*
G04 #@! TO.N,Net-(J6-Pad1)*
X136095500Y-65102500D03*
D15*
G04 #@! TO.P,D16,1*
G04 #@! TO.N,Net-(D1-Pad1)*
X101854000Y-75438000D03*
D16*
G04 #@! TO.P,D16,2*
G04 #@! TO.N,Net-(D16-Pad2)*
X104394000Y-75438000D03*
G04 #@! TD*
G04 #@! TO.P,D17,2*
G04 #@! TO.N,Net-(D16-Pad2)*
X104521000Y-94488000D03*
D15*
G04 #@! TO.P,D17,1*
G04 #@! TO.N,Net-(D12-Pad1)*
X101981000Y-94488000D03*
G04 #@! TD*
G04 #@! TO.P,D18,1*
G04 #@! TO.N,Net-(D13-Pad1)*
X101727000Y-113538000D03*
D16*
G04 #@! TO.P,D18,2*
G04 #@! TO.N,Net-(D16-Pad2)*
X104267000Y-113538000D03*
G04 #@! TD*
G04 #@! TO.P,D19,2*
G04 #@! TO.N,Net-(D16-Pad2)*
X104521000Y-132588000D03*
D15*
G04 #@! TO.P,D19,1*
G04 #@! TO.N,Net-(D14-Pad1)*
X101981000Y-132588000D03*
G04 #@! TD*
G04 #@! TO.P,D20,1*
G04 #@! TO.N,Net-(D10-Pad1)*
X101981000Y-151765000D03*
D16*
G04 #@! TO.P,D20,2*
G04 #@! TO.N,Net-(D16-Pad2)*
X104521000Y-151765000D03*
G04 #@! TD*
G04 #@! TO.P,D21,2*
G04 #@! TO.N,Net-(D21-Pad2)*
X123317000Y-75438000D03*
D15*
G04 #@! TO.P,D21,1*
G04 #@! TO.N,Net-(D1-Pad1)*
X120777000Y-75438000D03*
G04 #@! TD*
G04 #@! TO.P,D22,1*
G04 #@! TO.N,Net-(D12-Pad1)*
X120777000Y-94488000D03*
D16*
G04 #@! TO.P,D22,2*
G04 #@! TO.N,Net-(D21-Pad2)*
X123317000Y-94488000D03*
G04 #@! TD*
G04 #@! TO.P,D23,2*
G04 #@! TO.N,Net-(D21-Pad2)*
X123571000Y-113411000D03*
D15*
G04 #@! TO.P,D23,1*
G04 #@! TO.N,Net-(D13-Pad1)*
X121031000Y-113411000D03*
G04 #@! TD*
G04 #@! TO.P,D24,1*
G04 #@! TO.N,Net-(D14-Pad1)*
X121031000Y-132588000D03*
D16*
G04 #@! TO.P,D24,2*
G04 #@! TO.N,Net-(D21-Pad2)*
X123571000Y-132588000D03*
G04 #@! TD*
G04 #@! TO.P,D25,2*
G04 #@! TO.N,Net-(D21-Pad2)*
X123571000Y-151765000D03*
D15*
G04 #@! TO.P,D25,1*
G04 #@! TO.N,Net-(D10-Pad1)*
X121031000Y-151765000D03*
G04 #@! TD*
G04 #@! TO.P,D26,1*
G04 #@! TO.N,Net-(D1-Pad1)*
X139954000Y-75438000D03*
D16*
G04 #@! TO.P,D26,2*
G04 #@! TO.N,Net-(D26-Pad2)*
X142494000Y-75438000D03*
G04 #@! TD*
G04 #@! TO.P,D27,2*
G04 #@! TO.N,Net-(D26-Pad2)*
X142494000Y-94488000D03*
D15*
G04 #@! TO.P,D27,1*
G04 #@! TO.N,Net-(D12-Pad1)*
X139954000Y-94488000D03*
G04 #@! TD*
G04 #@! TO.P,D28,1*
G04 #@! TO.N,Net-(D13-Pad1)*
X139954000Y-113411000D03*
D16*
G04 #@! TO.P,D28,2*
G04 #@! TO.N,Net-(D26-Pad2)*
X142494000Y-113411000D03*
G04 #@! TD*
G04 #@! TO.P,D29,2*
G04 #@! TO.N,Net-(D26-Pad2)*
X142494000Y-132588000D03*
D15*
G04 #@! TO.P,D29,1*
G04 #@! TO.N,Net-(D14-Pad1)*
X139954000Y-132588000D03*
G04 #@! TD*
G04 #@! TO.P,D30,1*
G04 #@! TO.N,Net-(D10-Pad1)*
X139827000Y-151765000D03*
D16*
G04 #@! TO.P,D30,2*
G04 #@! TO.N,Net-(D26-Pad2)*
X142367000Y-151765000D03*
G04 #@! TD*
D10*
G04 #@! TO.P,J8,5*
G04 #@! TO.N,Net-(D1-Pad1)*
X150622000Y-103378000D03*
G04 #@! TO.P,J8,4*
G04 #@! TO.N,Net-(D12-Pad1)*
X150622000Y-105918000D03*
G04 #@! TO.P,J8,3*
G04 #@! TO.N,Net-(D13-Pad1)*
X150622000Y-108458000D03*
G04 #@! TO.P,J8,2*
G04 #@! TO.N,Net-(D14-Pad1)*
X150622000Y-110998000D03*
D11*
G04 #@! TO.P,J8,1*
G04 #@! TO.N,Net-(D10-Pad1)*
X150622000Y-113538000D03*
G04 #@! TD*
D17*
G04 #@! TO.N,Net-(D1-Pad2)*
X99344001Y-72516999D02*
X98298000Y-73563000D01*
X99344001Y-69403635D02*
X99344001Y-72516999D01*
X99314000Y-69373634D02*
X99344001Y-69403635D01*
X99314000Y-67818000D02*
X99314000Y-69373634D01*
G04 #@! TO.N,Net-(D2-Pad2)*
X99344001Y-91566999D02*
X98298000Y-92613000D01*
X99344001Y-88783999D02*
X99344001Y-91566999D01*
X99314000Y-88753998D02*
X99344001Y-88783999D01*
X99314000Y-86868000D02*
X99314000Y-88753998D01*
G04 #@! TO.N,Net-(D3-Pad2)*
X99344001Y-110538499D02*
X98298000Y-111584500D01*
X99344001Y-107503635D02*
X99344001Y-110538499D01*
X99314000Y-107473634D02*
X99344001Y-107503635D01*
X99314000Y-105918000D02*
X99314000Y-107473634D01*
G04 #@! TO.N,Net-(D4-Pad2)*
X99344001Y-129842499D02*
X98425000Y-130761500D01*
X99344001Y-126553635D02*
X99344001Y-129842499D01*
X99314000Y-126523634D02*
X99344001Y-126553635D01*
X99314000Y-124968000D02*
X99314000Y-126523634D01*
G04 #@! TO.N,Net-(D5-Pad2)*
X99344001Y-148589999D02*
X98044000Y-149890000D01*
X99344001Y-145603635D02*
X99344001Y-148589999D01*
X99314000Y-145573634D02*
X99344001Y-145603635D01*
X99314000Y-144018000D02*
X99314000Y-145573634D01*
G04 #@! TO.N,Net-(D6-Pad2)*
X118394001Y-72516999D02*
X117348000Y-73563000D01*
X118364000Y-69373634D02*
X118394001Y-69403635D01*
X118394001Y-69403635D02*
X118394001Y-72516999D01*
X118364000Y-67818000D02*
X118364000Y-69373634D01*
G04 #@! TO.N,Net-(D7-Pad2)*
X118394001Y-91566999D02*
X117348000Y-92613000D01*
X118364000Y-88753998D02*
X118394001Y-88783999D01*
X118394001Y-88783999D02*
X118394001Y-91566999D01*
X118364000Y-86868000D02*
X118364000Y-88753998D01*
G04 #@! TO.N,Net-(D8-Pad2)*
X118394001Y-110616999D02*
X117475000Y-111536000D01*
X118394001Y-107833999D02*
X118394001Y-110616999D01*
X118364000Y-107803998D02*
X118394001Y-107833999D01*
X118364000Y-105918000D02*
X118364000Y-107803998D01*
G04 #@! TO.N,Net-(D9-Pad2)*
X118394001Y-129715499D02*
X117348000Y-130761500D01*
X118394001Y-126553635D02*
X118394001Y-129715499D01*
X118364000Y-126523634D02*
X118394001Y-126553635D01*
X118364000Y-124968000D02*
X118364000Y-126523634D01*
G04 #@! TO.N,Net-(D10-Pad2)*
X118394001Y-148765499D02*
X117221000Y-149938500D01*
X118364000Y-145573634D02*
X118394001Y-145603635D01*
X118394001Y-145603635D02*
X118394001Y-148765499D01*
X118364000Y-144018000D02*
X118364000Y-145573634D01*
G04 #@! TO.N,Net-(D11-Pad2)*
X137444001Y-72516999D02*
X136525000Y-73436000D01*
X137444001Y-69733999D02*
X137444001Y-72516999D01*
X137414000Y-69703998D02*
X137444001Y-69733999D01*
X137414000Y-67818000D02*
X137414000Y-69703998D01*
G04 #@! TO.N,Net-(D12-Pad2)*
X137444001Y-91693999D02*
X136398000Y-92740000D01*
X137444001Y-88453635D02*
X137444001Y-91693999D01*
X137414000Y-88423634D02*
X137444001Y-88453635D01*
X137414000Y-86868000D02*
X137414000Y-88423634D01*
G04 #@! TO.N,Net-(D13-Pad2)*
X137444001Y-110743999D02*
X136652000Y-111536000D01*
X137444001Y-107503635D02*
X137444001Y-110743999D01*
X137414000Y-107473634D02*
X137444001Y-107503635D01*
X137414000Y-105918000D02*
X137414000Y-107473634D01*
G04 #@! TO.N,Net-(D14-Pad2)*
X137444001Y-129539999D02*
X136271000Y-130713000D01*
X137444001Y-126553635D02*
X137444001Y-129539999D01*
X137414000Y-126523634D02*
X137444001Y-126553635D01*
X137414000Y-124968000D02*
X137414000Y-126523634D01*
G04 #@! TO.N,Net-(D15-Pad2)*
X137444001Y-148511499D02*
X136017000Y-149938500D01*
X137414000Y-145573634D02*
X137444001Y-145603635D01*
X137444001Y-145603635D02*
X137444001Y-148511499D01*
X137414000Y-144018000D02*
X137414000Y-145573634D01*
G04 #@! TO.N,Net-(D1-Pad1)*
X139827000Y-75311000D02*
X139954000Y-75438000D01*
X136525000Y-75311000D02*
X139827000Y-75311000D01*
X117348000Y-75438000D02*
X120777000Y-75438000D01*
X98298000Y-75438000D02*
X101854000Y-75438000D01*
X115997999Y-76788001D02*
X117348000Y-75438000D01*
X103204001Y-76788001D02*
X115997999Y-76788001D01*
X101854000Y-75438000D02*
X103204001Y-76788001D01*
X135047999Y-76788001D02*
X136525000Y-75311000D01*
X122127001Y-76788001D02*
X135047999Y-76788001D01*
X120777000Y-75438000D02*
X122127001Y-76788001D01*
X150622000Y-87506000D02*
X150622000Y-103378000D01*
X139954000Y-76838000D02*
X150622000Y-87506000D01*
X139954000Y-75438000D02*
X139954000Y-76838000D01*
G04 #@! TO.N,Net-(D12-Pad1)*
X98298000Y-94488000D02*
X101981000Y-94488000D01*
X117348000Y-94488000D02*
X120777000Y-94488000D01*
X139827000Y-94615000D02*
X139954000Y-94488000D01*
X136398000Y-94615000D02*
X139827000Y-94615000D01*
X135174999Y-95838001D02*
X136398000Y-94615000D01*
X122127001Y-95838001D02*
X135174999Y-95838001D01*
X120777000Y-94488000D02*
X122127001Y-95838001D01*
X115997999Y-95838001D02*
X117348000Y-94488000D01*
X103331001Y-95838001D02*
X115997999Y-95838001D01*
X101981000Y-94488000D02*
X103331001Y-95838001D01*
X139954000Y-95888000D02*
X142872000Y-98806000D01*
X139954000Y-94488000D02*
X139954000Y-95888000D01*
X142872000Y-98806000D02*
X143764000Y-98806000D01*
X143764000Y-98806000D02*
X147447000Y-102489000D01*
X147447000Y-102489000D02*
X147447000Y-104013000D01*
X149352000Y-105918000D02*
X150622000Y-105918000D01*
X147447000Y-104013000D02*
X149352000Y-105918000D01*
G04 #@! TO.N,Net-(D13-Pad1)*
X136652000Y-113411000D02*
X139954000Y-113411000D01*
X117475000Y-113411000D02*
X121031000Y-113411000D01*
X101648500Y-113459500D02*
X101727000Y-113538000D01*
X98298000Y-113459500D02*
X101648500Y-113459500D01*
X101727000Y-114938000D02*
X102994000Y-116205000D01*
X101727000Y-113538000D02*
X101727000Y-114938000D01*
X114681000Y-116205000D02*
X117475000Y-113411000D01*
X102994000Y-116205000D02*
X114681000Y-116205000D01*
X121031000Y-114811000D02*
X122298000Y-116078000D01*
X121031000Y-113411000D02*
X121031000Y-114811000D01*
X133985000Y-116078000D02*
X136652000Y-113411000D01*
X122298000Y-116078000D02*
X133985000Y-116078000D01*
X149772001Y-109307999D02*
X149264001Y-109307999D01*
X150622000Y-108458000D02*
X149772001Y-109307999D01*
X149264001Y-109307999D02*
X145923000Y-112649000D01*
X145923000Y-112649000D02*
X145923000Y-115316000D01*
X145923000Y-115316000D02*
X143891000Y-117348000D01*
X143891000Y-117348000D02*
X140462000Y-117348000D01*
X139954000Y-116840000D02*
X139954000Y-113411000D01*
X140462000Y-117348000D02*
X139954000Y-116840000D01*
G04 #@! TO.N,Net-(D14-Pad1)*
X136271000Y-132588000D02*
X139954000Y-132588000D01*
X120982500Y-132636500D02*
X121031000Y-132588000D01*
X117348000Y-132636500D02*
X120982500Y-132636500D01*
X101932500Y-132636500D02*
X101981000Y-132588000D01*
X98425000Y-132636500D02*
X101932500Y-132636500D01*
X115999500Y-133985000D02*
X117348000Y-132636500D01*
X103378000Y-133985000D02*
X115999500Y-133985000D01*
X101981000Y-132588000D02*
X103378000Y-133985000D01*
X134920999Y-133938001D02*
X136271000Y-132588000D01*
X122381001Y-133938001D02*
X134920999Y-133938001D01*
X121031000Y-132588000D02*
X122381001Y-133938001D01*
X149419919Y-110998000D02*
X147955000Y-112462919D01*
X150622000Y-110998000D02*
X149419919Y-110998000D01*
X147955000Y-112462919D02*
X147955000Y-135636000D01*
X147955000Y-135636000D02*
X147193000Y-136398000D01*
X147193000Y-136398000D02*
X141478000Y-136398000D01*
X139954000Y-134874000D02*
X139954000Y-132588000D01*
X141478000Y-136398000D02*
X139954000Y-134874000D01*
G04 #@! TO.N,Net-(D10-Pad1)*
X98044000Y-151765000D02*
X101981000Y-151765000D01*
X120982500Y-151813500D02*
X121031000Y-151765000D01*
X117221000Y-151813500D02*
X120982500Y-151813500D01*
X139778500Y-151813500D02*
X139827000Y-151765000D01*
X136017000Y-151813500D02*
X139778500Y-151813500D01*
X115919499Y-153115001D02*
X117221000Y-151813500D01*
X103331001Y-153115001D02*
X115919499Y-153115001D01*
X101981000Y-151765000D02*
X103331001Y-153115001D01*
X134668500Y-153162000D02*
X136017000Y-151813500D01*
X122428000Y-153162000D02*
X134668500Y-153162000D01*
X121031000Y-151765000D02*
X122428000Y-153162000D01*
X139827000Y-153670000D02*
X139827000Y-151765000D01*
X140716000Y-154559000D02*
X139827000Y-153670000D01*
X150622000Y-151765000D02*
X147828000Y-154559000D01*
X147828000Y-154559000D02*
X140716000Y-154559000D01*
X150622000Y-113538000D02*
X150622000Y-151765000D01*
G04 #@! TO.N,Net-(D16-Pad2)*
X100585000Y-64848500D02*
X99997500Y-64848500D01*
X101240502Y-64848500D02*
X100585000Y-64848500D01*
X105574001Y-69181999D02*
X101240502Y-64848500D01*
X105574001Y-74257999D02*
X105574001Y-69181999D01*
X104394000Y-75438000D02*
X105574001Y-74257999D01*
G04 #@! TO.N,Net-(D21-Pad2)*
X124624001Y-74130999D02*
X124216999Y-74538001D01*
X124216999Y-74538001D02*
X123317000Y-75438000D01*
X124624001Y-69181999D02*
X124624001Y-74130999D01*
X120163502Y-64721500D02*
X124624001Y-69181999D01*
X118539500Y-64721500D02*
X120163502Y-64721500D01*
G04 #@! TO.N,Net-(D26-Pad2)*
X143393999Y-74538001D02*
X142494000Y-75438000D01*
X143674001Y-69181999D02*
X143674001Y-74257999D01*
X139594502Y-65102500D02*
X143674001Y-69181999D01*
X143674001Y-74257999D02*
X143393999Y-74538001D01*
X137970500Y-65102500D02*
X139594502Y-65102500D01*
G04 #@! TO.N,Net-(J6-Pad3)*
X101219000Y-60325000D02*
X98122500Y-63421500D01*
X121412000Y-60325000D02*
X101219000Y-60325000D01*
X98122500Y-63421500D02*
X98122500Y-64848500D01*
X122682000Y-59055000D02*
X121412000Y-60325000D01*
G04 #@! TO.N,Net-(J6-Pad2)*
X116664500Y-64721500D02*
X119507000Y-61879000D01*
X119507000Y-61879000D02*
X122906000Y-61879000D01*
X122906000Y-61879000D02*
X125222000Y-59563000D01*
X125222000Y-58420000D02*
X125222000Y-59563000D01*
G04 #@! TO.N,Net-(J6-Pad1)*
X136095500Y-65102500D02*
X133174500Y-65102500D01*
X128063000Y-60071000D02*
X128143000Y-60071000D01*
X127762000Y-59770000D02*
X128063000Y-60071000D01*
X127762000Y-58420000D02*
X127762000Y-59770000D01*
X128143000Y-60071000D02*
X127762000Y-59690000D01*
X133174500Y-65102500D02*
X128143000Y-60071000D01*
G04 #@! TD*
M02*
