G04 #@! TF.GenerationSoftware,KiCad,Pcbnew,(6.0.0-rc1-dev-113-g3868f21)*
G04 #@! TF.CreationDate,2018-09-11T18:01:50-04:00*
G04 #@! TF.ProjectId,CNCKeypad,434E434B65797061642E6B696361645F,rev?*
G04 #@! TF.SameCoordinates,Original*
G04 #@! TF.FileFunction,Legend,Bot*
G04 #@! TF.FilePolarity,Positive*
%FSLAX46Y46*%
G04 Gerber Fmt 4.6, Leading zero omitted, Abs format (unit mm)*
G04 Created by KiCad (PCBNEW (6.0.0-rc1-dev-113-g3868f21)) date Tuesday, September 11, 2018 at 06:01:50 PM*
%MOMM*%
%LPD*%
G01*
G04 APERTURE LIST*
%ADD10C,0.120000*%
%ADD11C,0.150000*%
G04 APERTURE END LIST*
D10*
G04 #@! TO.C,J6*
X129092000Y-59750000D02*
X129092000Y-58420000D01*
X127762000Y-59750000D02*
X129092000Y-59750000D01*
X126492000Y-59750000D02*
X126492000Y-57090000D01*
X126492000Y-57090000D02*
X113732000Y-57090000D01*
X126492000Y-59750000D02*
X113732000Y-59750000D01*
X113732000Y-59750000D02*
X113732000Y-57090000D01*
G04 #@! TO.C,D1*
X99258000Y-73500500D02*
X99258000Y-76185500D01*
X99258000Y-76185500D02*
X97338000Y-76185500D01*
X97338000Y-76185500D02*
X97338000Y-73500500D01*
G04 #@! TO.C,D2*
X97338000Y-95235500D02*
X97338000Y-92550500D01*
X99258000Y-95235500D02*
X97338000Y-95235500D01*
X99258000Y-92550500D02*
X99258000Y-95235500D01*
G04 #@! TO.C,D3*
X99258000Y-111522000D02*
X99258000Y-114207000D01*
X99258000Y-114207000D02*
X97338000Y-114207000D01*
X97338000Y-114207000D02*
X97338000Y-111522000D01*
G04 #@! TO.C,D4*
X97465000Y-133384000D02*
X97465000Y-130699000D01*
X99385000Y-133384000D02*
X97465000Y-133384000D01*
X99385000Y-130699000D02*
X99385000Y-133384000D01*
G04 #@! TO.C,D5*
X99004000Y-149827500D02*
X99004000Y-152512500D01*
X99004000Y-152512500D02*
X97084000Y-152512500D01*
X97084000Y-152512500D02*
X97084000Y-149827500D01*
G04 #@! TO.C,D6*
X116388000Y-76185500D02*
X116388000Y-73500500D01*
X118308000Y-76185500D02*
X116388000Y-76185500D01*
X118308000Y-73500500D02*
X118308000Y-76185500D01*
G04 #@! TO.C,D7*
X118308000Y-92550500D02*
X118308000Y-95235500D01*
X118308000Y-95235500D02*
X116388000Y-95235500D01*
X116388000Y-95235500D02*
X116388000Y-92550500D01*
G04 #@! TO.C,D8*
X116515000Y-114158500D02*
X116515000Y-111473500D01*
X118435000Y-114158500D02*
X116515000Y-114158500D01*
X118435000Y-111473500D02*
X118435000Y-114158500D01*
G04 #@! TO.C,D9*
X118308000Y-130699000D02*
X118308000Y-133384000D01*
X118308000Y-133384000D02*
X116388000Y-133384000D01*
X116388000Y-133384000D02*
X116388000Y-130699000D01*
G04 #@! TO.C,D10*
X116261000Y-152561000D02*
X116261000Y-149876000D01*
X118181000Y-152561000D02*
X116261000Y-152561000D01*
X118181000Y-149876000D02*
X118181000Y-152561000D01*
G04 #@! TO.C,D11*
X137485000Y-73373500D02*
X137485000Y-76058500D01*
X137485000Y-76058500D02*
X135565000Y-76058500D01*
X135565000Y-76058500D02*
X135565000Y-73373500D01*
G04 #@! TO.C,D12*
X135438000Y-95362500D02*
X135438000Y-92677500D01*
X137358000Y-95362500D02*
X135438000Y-95362500D01*
X137358000Y-92677500D02*
X137358000Y-95362500D01*
G04 #@! TO.C,D13*
X137612000Y-111473500D02*
X137612000Y-114158500D01*
X137612000Y-114158500D02*
X135692000Y-114158500D01*
X135692000Y-114158500D02*
X135692000Y-111473500D01*
G04 #@! TO.C,D14*
X135311000Y-133335500D02*
X135311000Y-130650500D01*
X137231000Y-133335500D02*
X135311000Y-133335500D01*
X137231000Y-130650500D02*
X137231000Y-133335500D01*
G04 #@! TO.C,D15*
X136977000Y-149876000D02*
X136977000Y-152561000D01*
X136977000Y-152561000D02*
X135057000Y-152561000D01*
X135057000Y-152561000D02*
X135057000Y-149876000D01*
G04 #@! TO.C,R1*
X98801422Y-64138500D02*
X99318578Y-64138500D01*
X98801422Y-65558500D02*
X99318578Y-65558500D01*
G04 #@! TO.C,R2*
X117343422Y-64011500D02*
X117860578Y-64011500D01*
X117343422Y-65431500D02*
X117860578Y-65431500D01*
G04 #@! TO.C,R3*
X136774422Y-64392500D02*
X137291578Y-64392500D01*
X136774422Y-65812500D02*
X137291578Y-65812500D01*
G04 #@! TO.C,J8*
X149292000Y-114868000D02*
X150622000Y-114868000D01*
X149292000Y-113538000D02*
X149292000Y-114868000D01*
X149292000Y-112268000D02*
X151952000Y-112268000D01*
X151952000Y-112268000D02*
X151952000Y-102048000D01*
X149292000Y-112268000D02*
X149292000Y-102048000D01*
X149292000Y-102048000D02*
X151952000Y-102048000D01*
G04 #@! TO.C,J6*
D11*
X129544380Y-58086666D02*
X130258666Y-58086666D01*
X130401523Y-58039047D01*
X130496761Y-57943809D01*
X130544380Y-57800952D01*
X130544380Y-57705714D01*
X129544380Y-58991428D02*
X129544380Y-58800952D01*
X129592000Y-58705714D01*
X129639619Y-58658095D01*
X129782476Y-58562857D01*
X129972952Y-58515238D01*
X130353904Y-58515238D01*
X130449142Y-58562857D01*
X130496761Y-58610476D01*
X130544380Y-58705714D01*
X130544380Y-58896190D01*
X130496761Y-58991428D01*
X130449142Y-59039047D01*
X130353904Y-59086666D01*
X130115809Y-59086666D01*
X130020571Y-59039047D01*
X129972952Y-58991428D01*
X129925333Y-58896190D01*
X129925333Y-58705714D01*
X129972952Y-58610476D01*
X130020571Y-58562857D01*
X130115809Y-58515238D01*
G04 #@! TO.C,D1*
X100400380Y-73762404D02*
X99400380Y-73762404D01*
X99400380Y-74000500D01*
X99448000Y-74143357D01*
X99543238Y-74238595D01*
X99638476Y-74286214D01*
X99828952Y-74333833D01*
X99971809Y-74333833D01*
X100162285Y-74286214D01*
X100257523Y-74238595D01*
X100352761Y-74143357D01*
X100400380Y-74000500D01*
X100400380Y-73762404D01*
X100400380Y-75286214D02*
X100400380Y-74714785D01*
X100400380Y-75000500D02*
X99400380Y-75000500D01*
X99543238Y-74905261D01*
X99638476Y-74810023D01*
X99686095Y-74714785D01*
G04 #@! TO.C,D2*
X100400380Y-92812404D02*
X99400380Y-92812404D01*
X99400380Y-93050500D01*
X99448000Y-93193357D01*
X99543238Y-93288595D01*
X99638476Y-93336214D01*
X99828952Y-93383833D01*
X99971809Y-93383833D01*
X100162285Y-93336214D01*
X100257523Y-93288595D01*
X100352761Y-93193357D01*
X100400380Y-93050500D01*
X100400380Y-92812404D01*
X99495619Y-93764785D02*
X99448000Y-93812404D01*
X99400380Y-93907642D01*
X99400380Y-94145738D01*
X99448000Y-94240976D01*
X99495619Y-94288595D01*
X99590857Y-94336214D01*
X99686095Y-94336214D01*
X99828952Y-94288595D01*
X100400380Y-93717166D01*
X100400380Y-94336214D01*
G04 #@! TO.C,D3*
X100400380Y-111783904D02*
X99400380Y-111783904D01*
X99400380Y-112022000D01*
X99448000Y-112164857D01*
X99543238Y-112260095D01*
X99638476Y-112307714D01*
X99828952Y-112355333D01*
X99971809Y-112355333D01*
X100162285Y-112307714D01*
X100257523Y-112260095D01*
X100352761Y-112164857D01*
X100400380Y-112022000D01*
X100400380Y-111783904D01*
X99400380Y-112688666D02*
X99400380Y-113307714D01*
X99781333Y-112974380D01*
X99781333Y-113117238D01*
X99828952Y-113212476D01*
X99876571Y-113260095D01*
X99971809Y-113307714D01*
X100209904Y-113307714D01*
X100305142Y-113260095D01*
X100352761Y-113212476D01*
X100400380Y-113117238D01*
X100400380Y-112831523D01*
X100352761Y-112736285D01*
X100305142Y-112688666D01*
G04 #@! TO.C,D4*
X100527380Y-130960904D02*
X99527380Y-130960904D01*
X99527380Y-131199000D01*
X99575000Y-131341857D01*
X99670238Y-131437095D01*
X99765476Y-131484714D01*
X99955952Y-131532333D01*
X100098809Y-131532333D01*
X100289285Y-131484714D01*
X100384523Y-131437095D01*
X100479761Y-131341857D01*
X100527380Y-131199000D01*
X100527380Y-130960904D01*
X99860714Y-132389476D02*
X100527380Y-132389476D01*
X99479761Y-132151380D02*
X100194047Y-131913285D01*
X100194047Y-132532333D01*
G04 #@! TO.C,D5*
X100146380Y-150089404D02*
X99146380Y-150089404D01*
X99146380Y-150327500D01*
X99194000Y-150470357D01*
X99289238Y-150565595D01*
X99384476Y-150613214D01*
X99574952Y-150660833D01*
X99717809Y-150660833D01*
X99908285Y-150613214D01*
X100003523Y-150565595D01*
X100098761Y-150470357D01*
X100146380Y-150327500D01*
X100146380Y-150089404D01*
X99146380Y-151565595D02*
X99146380Y-151089404D01*
X99622571Y-151041785D01*
X99574952Y-151089404D01*
X99527333Y-151184642D01*
X99527333Y-151422738D01*
X99574952Y-151517976D01*
X99622571Y-151565595D01*
X99717809Y-151613214D01*
X99955904Y-151613214D01*
X100051142Y-151565595D01*
X100098761Y-151517976D01*
X100146380Y-151422738D01*
X100146380Y-151184642D01*
X100098761Y-151089404D01*
X100051142Y-151041785D01*
G04 #@! TO.C,D6*
X119450380Y-73762404D02*
X118450380Y-73762404D01*
X118450380Y-74000500D01*
X118498000Y-74143357D01*
X118593238Y-74238595D01*
X118688476Y-74286214D01*
X118878952Y-74333833D01*
X119021809Y-74333833D01*
X119212285Y-74286214D01*
X119307523Y-74238595D01*
X119402761Y-74143357D01*
X119450380Y-74000500D01*
X119450380Y-73762404D01*
X118450380Y-75190976D02*
X118450380Y-75000500D01*
X118498000Y-74905261D01*
X118545619Y-74857642D01*
X118688476Y-74762404D01*
X118878952Y-74714785D01*
X119259904Y-74714785D01*
X119355142Y-74762404D01*
X119402761Y-74810023D01*
X119450380Y-74905261D01*
X119450380Y-75095738D01*
X119402761Y-75190976D01*
X119355142Y-75238595D01*
X119259904Y-75286214D01*
X119021809Y-75286214D01*
X118926571Y-75238595D01*
X118878952Y-75190976D01*
X118831333Y-75095738D01*
X118831333Y-74905261D01*
X118878952Y-74810023D01*
X118926571Y-74762404D01*
X119021809Y-74714785D01*
G04 #@! TO.C,D7*
X119450380Y-92812404D02*
X118450380Y-92812404D01*
X118450380Y-93050500D01*
X118498000Y-93193357D01*
X118593238Y-93288595D01*
X118688476Y-93336214D01*
X118878952Y-93383833D01*
X119021809Y-93383833D01*
X119212285Y-93336214D01*
X119307523Y-93288595D01*
X119402761Y-93193357D01*
X119450380Y-93050500D01*
X119450380Y-92812404D01*
X118450380Y-93717166D02*
X118450380Y-94383833D01*
X119450380Y-93955261D01*
G04 #@! TO.C,D8*
X119577380Y-111735404D02*
X118577380Y-111735404D01*
X118577380Y-111973500D01*
X118625000Y-112116357D01*
X118720238Y-112211595D01*
X118815476Y-112259214D01*
X119005952Y-112306833D01*
X119148809Y-112306833D01*
X119339285Y-112259214D01*
X119434523Y-112211595D01*
X119529761Y-112116357D01*
X119577380Y-111973500D01*
X119577380Y-111735404D01*
X119005952Y-112878261D02*
X118958333Y-112783023D01*
X118910714Y-112735404D01*
X118815476Y-112687785D01*
X118767857Y-112687785D01*
X118672619Y-112735404D01*
X118625000Y-112783023D01*
X118577380Y-112878261D01*
X118577380Y-113068738D01*
X118625000Y-113163976D01*
X118672619Y-113211595D01*
X118767857Y-113259214D01*
X118815476Y-113259214D01*
X118910714Y-113211595D01*
X118958333Y-113163976D01*
X119005952Y-113068738D01*
X119005952Y-112878261D01*
X119053571Y-112783023D01*
X119101190Y-112735404D01*
X119196428Y-112687785D01*
X119386904Y-112687785D01*
X119482142Y-112735404D01*
X119529761Y-112783023D01*
X119577380Y-112878261D01*
X119577380Y-113068738D01*
X119529761Y-113163976D01*
X119482142Y-113211595D01*
X119386904Y-113259214D01*
X119196428Y-113259214D01*
X119101190Y-113211595D01*
X119053571Y-113163976D01*
X119005952Y-113068738D01*
G04 #@! TO.C,D9*
X119450380Y-130960904D02*
X118450380Y-130960904D01*
X118450380Y-131199000D01*
X118498000Y-131341857D01*
X118593238Y-131437095D01*
X118688476Y-131484714D01*
X118878952Y-131532333D01*
X119021809Y-131532333D01*
X119212285Y-131484714D01*
X119307523Y-131437095D01*
X119402761Y-131341857D01*
X119450380Y-131199000D01*
X119450380Y-130960904D01*
X119450380Y-132008523D02*
X119450380Y-132199000D01*
X119402761Y-132294238D01*
X119355142Y-132341857D01*
X119212285Y-132437095D01*
X119021809Y-132484714D01*
X118640857Y-132484714D01*
X118545619Y-132437095D01*
X118498000Y-132389476D01*
X118450380Y-132294238D01*
X118450380Y-132103761D01*
X118498000Y-132008523D01*
X118545619Y-131960904D01*
X118640857Y-131913285D01*
X118878952Y-131913285D01*
X118974190Y-131960904D01*
X119021809Y-132008523D01*
X119069428Y-132103761D01*
X119069428Y-132294238D01*
X119021809Y-132389476D01*
X118974190Y-132437095D01*
X118878952Y-132484714D01*
G04 #@! TO.C,D10*
X119323380Y-149661714D02*
X118323380Y-149661714D01*
X118323380Y-149899809D01*
X118371000Y-150042666D01*
X118466238Y-150137904D01*
X118561476Y-150185523D01*
X118751952Y-150233142D01*
X118894809Y-150233142D01*
X119085285Y-150185523D01*
X119180523Y-150137904D01*
X119275761Y-150042666D01*
X119323380Y-149899809D01*
X119323380Y-149661714D01*
X119323380Y-151185523D02*
X119323380Y-150614095D01*
X119323380Y-150899809D02*
X118323380Y-150899809D01*
X118466238Y-150804571D01*
X118561476Y-150709333D01*
X118609095Y-150614095D01*
X118323380Y-151804571D02*
X118323380Y-151899809D01*
X118371000Y-151995047D01*
X118418619Y-152042666D01*
X118513857Y-152090285D01*
X118704333Y-152137904D01*
X118942428Y-152137904D01*
X119132904Y-152090285D01*
X119228142Y-152042666D01*
X119275761Y-151995047D01*
X119323380Y-151899809D01*
X119323380Y-151804571D01*
X119275761Y-151709333D01*
X119228142Y-151661714D01*
X119132904Y-151614095D01*
X118942428Y-151566476D01*
X118704333Y-151566476D01*
X118513857Y-151614095D01*
X118418619Y-151661714D01*
X118371000Y-151709333D01*
X118323380Y-151804571D01*
G04 #@! TO.C,D11*
X138627380Y-73159214D02*
X137627380Y-73159214D01*
X137627380Y-73397309D01*
X137675000Y-73540166D01*
X137770238Y-73635404D01*
X137865476Y-73683023D01*
X138055952Y-73730642D01*
X138198809Y-73730642D01*
X138389285Y-73683023D01*
X138484523Y-73635404D01*
X138579761Y-73540166D01*
X138627380Y-73397309D01*
X138627380Y-73159214D01*
X138627380Y-74683023D02*
X138627380Y-74111595D01*
X138627380Y-74397309D02*
X137627380Y-74397309D01*
X137770238Y-74302071D01*
X137865476Y-74206833D01*
X137913095Y-74111595D01*
X138627380Y-75635404D02*
X138627380Y-75063976D01*
X138627380Y-75349690D02*
X137627380Y-75349690D01*
X137770238Y-75254452D01*
X137865476Y-75159214D01*
X137913095Y-75063976D01*
G04 #@! TO.C,D12*
X138500380Y-92463214D02*
X137500380Y-92463214D01*
X137500380Y-92701309D01*
X137548000Y-92844166D01*
X137643238Y-92939404D01*
X137738476Y-92987023D01*
X137928952Y-93034642D01*
X138071809Y-93034642D01*
X138262285Y-92987023D01*
X138357523Y-92939404D01*
X138452761Y-92844166D01*
X138500380Y-92701309D01*
X138500380Y-92463214D01*
X138500380Y-93987023D02*
X138500380Y-93415595D01*
X138500380Y-93701309D02*
X137500380Y-93701309D01*
X137643238Y-93606071D01*
X137738476Y-93510833D01*
X137786095Y-93415595D01*
X137595619Y-94367976D02*
X137548000Y-94415595D01*
X137500380Y-94510833D01*
X137500380Y-94748928D01*
X137548000Y-94844166D01*
X137595619Y-94891785D01*
X137690857Y-94939404D01*
X137786095Y-94939404D01*
X137928952Y-94891785D01*
X138500380Y-94320357D01*
X138500380Y-94939404D01*
G04 #@! TO.C,D13*
X138754380Y-111259214D02*
X137754380Y-111259214D01*
X137754380Y-111497309D01*
X137802000Y-111640166D01*
X137897238Y-111735404D01*
X137992476Y-111783023D01*
X138182952Y-111830642D01*
X138325809Y-111830642D01*
X138516285Y-111783023D01*
X138611523Y-111735404D01*
X138706761Y-111640166D01*
X138754380Y-111497309D01*
X138754380Y-111259214D01*
X138754380Y-112783023D02*
X138754380Y-112211595D01*
X138754380Y-112497309D02*
X137754380Y-112497309D01*
X137897238Y-112402071D01*
X137992476Y-112306833D01*
X138040095Y-112211595D01*
X137754380Y-113116357D02*
X137754380Y-113735404D01*
X138135333Y-113402071D01*
X138135333Y-113544928D01*
X138182952Y-113640166D01*
X138230571Y-113687785D01*
X138325809Y-113735404D01*
X138563904Y-113735404D01*
X138659142Y-113687785D01*
X138706761Y-113640166D01*
X138754380Y-113544928D01*
X138754380Y-113259214D01*
X138706761Y-113163976D01*
X138659142Y-113116357D01*
G04 #@! TO.C,D14*
X138373380Y-130436214D02*
X137373380Y-130436214D01*
X137373380Y-130674309D01*
X137421000Y-130817166D01*
X137516238Y-130912404D01*
X137611476Y-130960023D01*
X137801952Y-131007642D01*
X137944809Y-131007642D01*
X138135285Y-130960023D01*
X138230523Y-130912404D01*
X138325761Y-130817166D01*
X138373380Y-130674309D01*
X138373380Y-130436214D01*
X138373380Y-131960023D02*
X138373380Y-131388595D01*
X138373380Y-131674309D02*
X137373380Y-131674309D01*
X137516238Y-131579071D01*
X137611476Y-131483833D01*
X137659095Y-131388595D01*
X137706714Y-132817166D02*
X138373380Y-132817166D01*
X137325761Y-132579071D02*
X138040047Y-132340976D01*
X138040047Y-132960023D01*
G04 #@! TO.C,D15*
X138119380Y-149661714D02*
X137119380Y-149661714D01*
X137119380Y-149899809D01*
X137167000Y-150042666D01*
X137262238Y-150137904D01*
X137357476Y-150185523D01*
X137547952Y-150233142D01*
X137690809Y-150233142D01*
X137881285Y-150185523D01*
X137976523Y-150137904D01*
X138071761Y-150042666D01*
X138119380Y-149899809D01*
X138119380Y-149661714D01*
X138119380Y-151185523D02*
X138119380Y-150614095D01*
X138119380Y-150899809D02*
X137119380Y-150899809D01*
X137262238Y-150804571D01*
X137357476Y-150709333D01*
X137405095Y-150614095D01*
X137119380Y-152090285D02*
X137119380Y-151614095D01*
X137595571Y-151566476D01*
X137547952Y-151614095D01*
X137500333Y-151709333D01*
X137500333Y-151947428D01*
X137547952Y-152042666D01*
X137595571Y-152090285D01*
X137690809Y-152137904D01*
X137928904Y-152137904D01*
X138024142Y-152090285D01*
X138071761Y-152042666D01*
X138119380Y-151947428D01*
X138119380Y-151709333D01*
X138071761Y-151614095D01*
X138024142Y-151566476D01*
G04 #@! TO.C,R1*
X102480166Y-65300880D02*
X102813500Y-64824690D01*
X103051595Y-65300880D02*
X103051595Y-64300880D01*
X102670642Y-64300880D01*
X102575404Y-64348500D01*
X102527785Y-64396119D01*
X102480166Y-64491357D01*
X102480166Y-64634214D01*
X102527785Y-64729452D01*
X102575404Y-64777071D01*
X102670642Y-64824690D01*
X103051595Y-64824690D01*
X101527785Y-65300880D02*
X102099214Y-65300880D01*
X101813500Y-65300880D02*
X101813500Y-64300880D01*
X101908738Y-64443738D01*
X102003976Y-64538976D01*
X102099214Y-64586595D01*
G04 #@! TO.C,R2*
X120943666Y-64998380D02*
X121277000Y-64522190D01*
X121515095Y-64998380D02*
X121515095Y-63998380D01*
X121134142Y-63998380D01*
X121038904Y-64046000D01*
X120991285Y-64093619D01*
X120943666Y-64188857D01*
X120943666Y-64331714D01*
X120991285Y-64426952D01*
X121038904Y-64474571D01*
X121134142Y-64522190D01*
X121515095Y-64522190D01*
X120562714Y-64093619D02*
X120515095Y-64046000D01*
X120419857Y-63998380D01*
X120181761Y-63998380D01*
X120086523Y-64046000D01*
X120038904Y-64093619D01*
X119991285Y-64188857D01*
X119991285Y-64284095D01*
X120038904Y-64426952D01*
X120610333Y-64998380D01*
X119991285Y-64998380D01*
G04 #@! TO.C,R3*
X140326166Y-65554880D02*
X140659500Y-65078690D01*
X140897595Y-65554880D02*
X140897595Y-64554880D01*
X140516642Y-64554880D01*
X140421404Y-64602500D01*
X140373785Y-64650119D01*
X140326166Y-64745357D01*
X140326166Y-64888214D01*
X140373785Y-64983452D01*
X140421404Y-65031071D01*
X140516642Y-65078690D01*
X140897595Y-65078690D01*
X139992833Y-64554880D02*
X139373785Y-64554880D01*
X139707119Y-64935833D01*
X139564261Y-64935833D01*
X139469023Y-64983452D01*
X139421404Y-65031071D01*
X139373785Y-65126309D01*
X139373785Y-65364404D01*
X139421404Y-65459642D01*
X139469023Y-65507261D01*
X139564261Y-65554880D01*
X139849976Y-65554880D01*
X139945214Y-65507261D01*
X139992833Y-65459642D01*
G04 #@! TO.C,J8*
X150955333Y-115320380D02*
X150955333Y-116034666D01*
X151002952Y-116177523D01*
X151098190Y-116272761D01*
X151241047Y-116320380D01*
X151336285Y-116320380D01*
X150336285Y-115748952D02*
X150431523Y-115701333D01*
X150479142Y-115653714D01*
X150526761Y-115558476D01*
X150526761Y-115510857D01*
X150479142Y-115415619D01*
X150431523Y-115368000D01*
X150336285Y-115320380D01*
X150145809Y-115320380D01*
X150050571Y-115368000D01*
X150002952Y-115415619D01*
X149955333Y-115510857D01*
X149955333Y-115558476D01*
X150002952Y-115653714D01*
X150050571Y-115701333D01*
X150145809Y-115748952D01*
X150336285Y-115748952D01*
X150431523Y-115796571D01*
X150479142Y-115844190D01*
X150526761Y-115939428D01*
X150526761Y-116129904D01*
X150479142Y-116225142D01*
X150431523Y-116272761D01*
X150336285Y-116320380D01*
X150145809Y-116320380D01*
X150050571Y-116272761D01*
X150002952Y-116225142D01*
X149955333Y-116129904D01*
X149955333Y-115939428D01*
X150002952Y-115844190D01*
X150050571Y-115796571D01*
X150145809Y-115748952D01*
G04 #@! TD*
M02*
