G04 #@! TF.GenerationSoftware,KiCad,Pcbnew,(6.0.0-rc1-dev-113-g3868f21)*
G04 #@! TF.CreationDate,2018-09-11T18:01:50-04:00*
G04 #@! TF.ProjectId,CNCKeypad,434E434B65797061642E6B696361645F,rev?*
G04 #@! TF.SameCoordinates,Original*
G04 #@! TF.FileFunction,Copper,L1,Top,Signal*
G04 #@! TF.FilePolarity,Positive*
%FSLAX46Y46*%
G04 Gerber Fmt 4.6, Leading zero omitted, Abs format (unit mm)*
G04 Created by KiCad (PCBNEW (6.0.0-rc1-dev-113-g3868f21)) date Tuesday, September 11, 2018 at 06:01:50 PM*
%MOMM*%
%LPD*%
G01*
G04 APERTURE LIST*
G04 #@! TA.AperFunction,ComponentPad*
%ADD10O,1.700000X1.700000*%
G04 #@! TD*
G04 #@! TA.AperFunction,ComponentPad*
%ADD11R,1.700000X1.700000*%
G04 #@! TD*
G04 #@! TA.AperFunction,ComponentPad*
%ADD12C,2.200000*%
G04 #@! TD*
G04 #@! TA.AperFunction,ComponentPad*
%ADD13R,1.800000X1.800000*%
G04 #@! TD*
G04 #@! TA.AperFunction,ComponentPad*
%ADD14C,1.800000*%
G04 #@! TD*
G04 #@! TA.AperFunction,Conductor*
%ADD15C,0.500000*%
G04 #@! TD*
G04 APERTURE END LIST*
D10*
G04 #@! TO.P,J6,6*
G04 #@! TO.N,Net-(J6-Pad6)*
X115062000Y-58420000D03*
G04 #@! TO.P,J6,5*
G04 #@! TO.N,Net-(J6-Pad5)*
X117602000Y-58420000D03*
G04 #@! TO.P,J6,4*
G04 #@! TO.N,Net-(J6-Pad4)*
X120142000Y-58420000D03*
G04 #@! TO.P,J6,3*
G04 #@! TO.N,Net-(J6-Pad3)*
X122682000Y-58420000D03*
G04 #@! TO.P,J6,2*
G04 #@! TO.N,Net-(J6-Pad2)*
X125222000Y-58420000D03*
D11*
G04 #@! TO.P,J6,1*
G04 #@! TO.N,Net-(J6-Pad1)*
X127762000Y-58420000D03*
G04 #@! TD*
D12*
G04 #@! TO.P,SW6,2*
G04 #@! TO.N,Net-(D6-Pad2)*
X118364000Y-67818000D03*
G04 #@! TO.P,SW6,1*
G04 #@! TO.N,Net-(J6-Pad5)*
X124714000Y-65278000D03*
G04 #@! TD*
G04 #@! TO.P,SW1,2*
G04 #@! TO.N,Net-(D1-Pad2)*
X99314000Y-67818000D03*
G04 #@! TO.P,SW1,1*
G04 #@! TO.N,Net-(J6-Pad6)*
X105664000Y-65278000D03*
G04 #@! TD*
G04 #@! TO.P,SW12,2*
G04 #@! TO.N,Net-(D12-Pad2)*
X137414000Y-86868000D03*
G04 #@! TO.P,SW12,1*
G04 #@! TO.N,Net-(J6-Pad4)*
X143764000Y-84328000D03*
G04 #@! TD*
G04 #@! TO.P,SW11,2*
G04 #@! TO.N,Net-(D11-Pad2)*
X137414000Y-67818000D03*
G04 #@! TO.P,SW11,1*
G04 #@! TO.N,Net-(J6-Pad4)*
X143764000Y-65278000D03*
G04 #@! TD*
G04 #@! TO.P,SW13,2*
G04 #@! TO.N,Net-(D13-Pad2)*
X137414000Y-105918000D03*
G04 #@! TO.P,SW13,1*
G04 #@! TO.N,Net-(J6-Pad4)*
X143764000Y-103378000D03*
G04 #@! TD*
G04 #@! TO.P,SW2,2*
G04 #@! TO.N,Net-(D2-Pad2)*
X99314000Y-86868000D03*
G04 #@! TO.P,SW2,1*
G04 #@! TO.N,Net-(J6-Pad6)*
X105664000Y-84328000D03*
G04 #@! TD*
G04 #@! TO.P,SW3,2*
G04 #@! TO.N,Net-(D3-Pad2)*
X99314000Y-105918000D03*
G04 #@! TO.P,SW3,1*
G04 #@! TO.N,Net-(J6-Pad6)*
X105664000Y-103378000D03*
G04 #@! TD*
G04 #@! TO.P,SW4,2*
G04 #@! TO.N,Net-(D4-Pad2)*
X99314000Y-124968000D03*
G04 #@! TO.P,SW4,1*
G04 #@! TO.N,Net-(J6-Pad6)*
X105664000Y-122428000D03*
G04 #@! TD*
G04 #@! TO.P,SW5,2*
G04 #@! TO.N,Net-(D5-Pad2)*
X99314000Y-144018000D03*
G04 #@! TO.P,SW5,1*
G04 #@! TO.N,Net-(J6-Pad6)*
X105664000Y-141478000D03*
G04 #@! TD*
G04 #@! TO.P,SW7,2*
G04 #@! TO.N,Net-(D7-Pad2)*
X118364000Y-86868000D03*
G04 #@! TO.P,SW7,1*
G04 #@! TO.N,Net-(J6-Pad5)*
X124714000Y-84328000D03*
G04 #@! TD*
G04 #@! TO.P,SW8,2*
G04 #@! TO.N,Net-(D8-Pad2)*
X118364000Y-105918000D03*
G04 #@! TO.P,SW8,1*
G04 #@! TO.N,Net-(J6-Pad5)*
X124714000Y-103378000D03*
G04 #@! TD*
G04 #@! TO.P,SW9,2*
G04 #@! TO.N,Net-(D9-Pad2)*
X118364000Y-124968000D03*
G04 #@! TO.P,SW9,1*
G04 #@! TO.N,Net-(J6-Pad5)*
X124714000Y-122428000D03*
G04 #@! TD*
G04 #@! TO.P,SW10,2*
G04 #@! TO.N,Net-(D10-Pad2)*
X118364000Y-144018000D03*
G04 #@! TO.P,SW10,1*
G04 #@! TO.N,Net-(J6-Pad5)*
X124714000Y-141478000D03*
G04 #@! TD*
G04 #@! TO.P,SW14,2*
G04 #@! TO.N,Net-(D14-Pad2)*
X137414000Y-124968000D03*
G04 #@! TO.P,SW14,1*
G04 #@! TO.N,Net-(J6-Pad4)*
X143764000Y-122428000D03*
G04 #@! TD*
G04 #@! TO.P,SW15,2*
G04 #@! TO.N,Net-(D15-Pad2)*
X137414000Y-144018000D03*
G04 #@! TO.P,SW15,1*
G04 #@! TO.N,Net-(J6-Pad4)*
X143764000Y-141478000D03*
G04 #@! TD*
D13*
G04 #@! TO.P,D16,1*
G04 #@! TO.N,Net-(D1-Pad1)*
X101854000Y-75438000D03*
D14*
G04 #@! TO.P,D16,2*
G04 #@! TO.N,Net-(D16-Pad2)*
X104394000Y-75438000D03*
G04 #@! TD*
G04 #@! TO.P,D17,2*
G04 #@! TO.N,Net-(D16-Pad2)*
X104521000Y-94488000D03*
D13*
G04 #@! TO.P,D17,1*
G04 #@! TO.N,Net-(D12-Pad1)*
X101981000Y-94488000D03*
G04 #@! TD*
G04 #@! TO.P,D18,1*
G04 #@! TO.N,Net-(D13-Pad1)*
X101727000Y-113538000D03*
D14*
G04 #@! TO.P,D18,2*
G04 #@! TO.N,Net-(D16-Pad2)*
X104267000Y-113538000D03*
G04 #@! TD*
G04 #@! TO.P,D19,2*
G04 #@! TO.N,Net-(D16-Pad2)*
X104521000Y-132588000D03*
D13*
G04 #@! TO.P,D19,1*
G04 #@! TO.N,Net-(D14-Pad1)*
X101981000Y-132588000D03*
G04 #@! TD*
G04 #@! TO.P,D20,1*
G04 #@! TO.N,Net-(D10-Pad1)*
X101981000Y-151765000D03*
D14*
G04 #@! TO.P,D20,2*
G04 #@! TO.N,Net-(D16-Pad2)*
X104521000Y-151765000D03*
G04 #@! TD*
G04 #@! TO.P,D21,2*
G04 #@! TO.N,Net-(D21-Pad2)*
X123317000Y-75438000D03*
D13*
G04 #@! TO.P,D21,1*
G04 #@! TO.N,Net-(D1-Pad1)*
X120777000Y-75438000D03*
G04 #@! TD*
G04 #@! TO.P,D22,1*
G04 #@! TO.N,Net-(D12-Pad1)*
X120777000Y-94488000D03*
D14*
G04 #@! TO.P,D22,2*
G04 #@! TO.N,Net-(D21-Pad2)*
X123317000Y-94488000D03*
G04 #@! TD*
G04 #@! TO.P,D23,2*
G04 #@! TO.N,Net-(D21-Pad2)*
X123571000Y-113411000D03*
D13*
G04 #@! TO.P,D23,1*
G04 #@! TO.N,Net-(D13-Pad1)*
X121031000Y-113411000D03*
G04 #@! TD*
G04 #@! TO.P,D24,1*
G04 #@! TO.N,Net-(D14-Pad1)*
X121031000Y-132588000D03*
D14*
G04 #@! TO.P,D24,2*
G04 #@! TO.N,Net-(D21-Pad2)*
X123571000Y-132588000D03*
G04 #@! TD*
G04 #@! TO.P,D25,2*
G04 #@! TO.N,Net-(D21-Pad2)*
X123571000Y-151765000D03*
D13*
G04 #@! TO.P,D25,1*
G04 #@! TO.N,Net-(D10-Pad1)*
X121031000Y-151765000D03*
G04 #@! TD*
G04 #@! TO.P,D26,1*
G04 #@! TO.N,Net-(D1-Pad1)*
X139954000Y-75438000D03*
D14*
G04 #@! TO.P,D26,2*
G04 #@! TO.N,Net-(D26-Pad2)*
X142494000Y-75438000D03*
G04 #@! TD*
G04 #@! TO.P,D27,2*
G04 #@! TO.N,Net-(D26-Pad2)*
X142494000Y-94488000D03*
D13*
G04 #@! TO.P,D27,1*
G04 #@! TO.N,Net-(D12-Pad1)*
X139954000Y-94488000D03*
G04 #@! TD*
G04 #@! TO.P,D28,1*
G04 #@! TO.N,Net-(D13-Pad1)*
X139954000Y-113411000D03*
D14*
G04 #@! TO.P,D28,2*
G04 #@! TO.N,Net-(D26-Pad2)*
X142494000Y-113411000D03*
G04 #@! TD*
G04 #@! TO.P,D29,2*
G04 #@! TO.N,Net-(D26-Pad2)*
X142494000Y-132588000D03*
D13*
G04 #@! TO.P,D29,1*
G04 #@! TO.N,Net-(D14-Pad1)*
X139954000Y-132588000D03*
G04 #@! TD*
G04 #@! TO.P,D30,1*
G04 #@! TO.N,Net-(D10-Pad1)*
X139827000Y-151765000D03*
D14*
G04 #@! TO.P,D30,2*
G04 #@! TO.N,Net-(D26-Pad2)*
X142367000Y-151765000D03*
G04 #@! TD*
D10*
G04 #@! TO.P,J8,5*
G04 #@! TO.N,Net-(D1-Pad1)*
X150622000Y-103378000D03*
G04 #@! TO.P,J8,4*
G04 #@! TO.N,Net-(D12-Pad1)*
X150622000Y-105918000D03*
G04 #@! TO.P,J8,3*
G04 #@! TO.N,Net-(D13-Pad1)*
X150622000Y-108458000D03*
G04 #@! TO.P,J8,2*
G04 #@! TO.N,Net-(D14-Pad1)*
X150622000Y-110998000D03*
D11*
G04 #@! TO.P,J8,1*
G04 #@! TO.N,Net-(D10-Pad1)*
X150622000Y-113538000D03*
G04 #@! TD*
D15*
G04 #@! TO.N,Net-(D16-Pad2)*
X105574001Y-131534999D02*
X104521000Y-132588000D01*
X103367001Y-124124999D02*
X105574001Y-126331999D01*
X103367001Y-114437999D02*
X103367001Y-124124999D01*
X105574001Y-126331999D02*
X105574001Y-131534999D01*
X104267000Y-113538000D02*
X103367001Y-114437999D01*
X104113999Y-134267793D02*
X104113999Y-142848999D01*
X104521000Y-133860792D02*
X104113999Y-134267793D01*
X104521000Y-132588000D02*
X104521000Y-133860792D01*
X104113999Y-142848999D02*
X106045000Y-144780000D01*
X106045000Y-150241000D02*
X104521000Y-151765000D01*
X106045000Y-144780000D02*
X106045000Y-150241000D01*
X103621001Y-95387999D02*
X104521000Y-94488000D01*
X103621001Y-103880597D02*
X103621001Y-95387999D01*
X105574001Y-105833597D02*
X103621001Y-103880597D01*
X105574001Y-112230999D02*
X105574001Y-105833597D01*
X104267000Y-113538000D02*
X105574001Y-112230999D01*
X103494001Y-76337999D02*
X104394000Y-75438000D01*
X103494001Y-84952001D02*
X103494001Y-76337999D01*
X106172000Y-87630000D02*
X103494001Y-84952001D01*
X106172000Y-92837000D02*
X106172000Y-87630000D01*
X104521000Y-94488000D02*
X106172000Y-92837000D01*
G04 #@! TO.N,Net-(D21-Pad2)*
X124624001Y-131534999D02*
X123571000Y-132588000D01*
X124624001Y-126331999D02*
X124624001Y-131534999D01*
X122671001Y-124378999D02*
X124624001Y-126331999D01*
X122671001Y-114310999D02*
X122671001Y-124378999D01*
X123571000Y-113411000D02*
X122671001Y-114310999D01*
X122417001Y-95387999D02*
X123317000Y-94488000D01*
X122417001Y-103375003D02*
X122417001Y-95387999D01*
X124624001Y-105582003D02*
X122417001Y-103375003D01*
X124624001Y-112357999D02*
X124624001Y-105582003D01*
X123571000Y-113411000D02*
X124624001Y-112357999D01*
X122417001Y-76337999D02*
X123317000Y-75438000D01*
X122417001Y-84325003D02*
X122417001Y-76337999D01*
X124624001Y-86532003D02*
X122417001Y-84325003D01*
X124624001Y-93180999D02*
X124624001Y-86532003D01*
X123317000Y-94488000D02*
X124624001Y-93180999D01*
X124624001Y-150711999D02*
X123571000Y-151765000D01*
X124624001Y-145381999D02*
X124624001Y-150711999D01*
X122671001Y-143428999D02*
X124624001Y-145381999D01*
X122671001Y-133487999D02*
X122671001Y-143428999D01*
X123571000Y-132588000D02*
X122671001Y-133487999D01*
G04 #@! TO.N,Net-(D26-Pad2)*
X141594001Y-133487999D02*
X142494000Y-132588000D01*
X143674001Y-150457999D02*
X143674001Y-143682003D01*
X141594001Y-141602003D02*
X141594001Y-133487999D01*
X143674001Y-143682003D02*
X141594001Y-141602003D01*
X142367000Y-151765000D02*
X143674001Y-150457999D01*
X141594001Y-114310999D02*
X142494000Y-113411000D01*
X141594001Y-122552003D02*
X141594001Y-114310999D01*
X143674001Y-124632003D02*
X141594001Y-122552003D01*
X143674001Y-130135207D02*
X143674001Y-124632003D01*
X142494000Y-131315208D02*
X143674001Y-130135207D01*
X142494000Y-132588000D02*
X142494000Y-131315208D01*
X141594001Y-95387999D02*
X142494000Y-94488000D01*
X141594001Y-103502003D02*
X141594001Y-95387999D01*
X143674001Y-105582003D02*
X141594001Y-103502003D01*
X143674001Y-112230999D02*
X143674001Y-105582003D01*
X142494000Y-113411000D02*
X143674001Y-112230999D01*
X141594001Y-76337999D02*
X142494000Y-75438000D01*
X141594001Y-84452003D02*
X141594001Y-76337999D01*
X143764000Y-86622002D02*
X141594001Y-84452003D01*
X143764000Y-93218000D02*
X143764000Y-86622002D01*
X142494000Y-94488000D02*
X143764000Y-93218000D01*
G04 #@! TO.N,Net-(J6-Pad6)*
X105664000Y-121793000D02*
X105664000Y-122428000D01*
X106426000Y-121031000D02*
X105664000Y-121793000D01*
X106426000Y-105695634D02*
X106426000Y-121031000D01*
X105664000Y-104933634D02*
X106426000Y-105695634D01*
X105664000Y-103378000D02*
X105664000Y-104933634D01*
X106763999Y-140378001D02*
X105664000Y-141478000D01*
X105664000Y-123983634D02*
X106763999Y-125083633D01*
X106763999Y-125083633D02*
X106763999Y-140378001D01*
X105664000Y-122428000D02*
X105664000Y-123983634D01*
X106903999Y-102138001D02*
X105664000Y-103378000D01*
X106903999Y-85567999D02*
X106903999Y-102138001D01*
X105664000Y-84328000D02*
X106903999Y-85567999D01*
X106763999Y-83228001D02*
X105664000Y-84328000D01*
X106763999Y-66377999D02*
X106763999Y-83228001D01*
X105664000Y-65278000D02*
X106763999Y-66377999D01*
X105664000Y-64770000D02*
X105664000Y-65278000D01*
X112522000Y-58420000D02*
X105664000Y-65278000D01*
X115062000Y-58420000D02*
X112522000Y-58420000D01*
G04 #@! TO.N,Net-(J6-Pad5)*
X125813999Y-140378001D02*
X124714000Y-141478000D01*
X124714000Y-123983634D02*
X125813999Y-125083633D01*
X125813999Y-125083633D02*
X125813999Y-140378001D01*
X124714000Y-122428000D02*
X124714000Y-123983634D01*
X125857000Y-104521000D02*
X124714000Y-103378000D01*
X125857000Y-121285000D02*
X125857000Y-104521000D01*
X124714000Y-122428000D02*
X125857000Y-121285000D01*
X125813999Y-85427999D02*
X125813999Y-102278001D01*
X125813999Y-102278001D02*
X124714000Y-103378000D01*
X124714000Y-84328000D02*
X125813999Y-85427999D01*
X125813999Y-66377999D02*
X124714000Y-65278000D01*
X125813999Y-83228001D02*
X125813999Y-66377999D01*
X124714000Y-84328000D02*
X125813999Y-83228001D01*
X123614001Y-64178001D02*
X124714000Y-65278000D01*
X122157920Y-64178001D02*
X123614001Y-64178001D01*
X117602000Y-59622081D02*
X122157920Y-64178001D01*
X117602000Y-58420000D02*
X117602000Y-59622081D01*
G04 #@! TO.N,Net-(J6-Pad4)*
X144863999Y-83228001D02*
X143764000Y-84328000D01*
X144863999Y-66377999D02*
X144863999Y-83228001D01*
X143764000Y-65278000D02*
X144863999Y-66377999D01*
X144863999Y-102278001D02*
X143764000Y-103378000D01*
X144863999Y-85427999D02*
X144863999Y-102278001D01*
X143764000Y-84328000D02*
X144863999Y-85427999D01*
X144863999Y-121328001D02*
X143764000Y-122428000D01*
X144863999Y-104477999D02*
X144863999Y-121328001D01*
X143764000Y-103378000D02*
X144863999Y-104477999D01*
X144863999Y-140378001D02*
X143764000Y-141478000D01*
X144863999Y-123527999D02*
X144863999Y-140378001D01*
X143764000Y-122428000D02*
X144863999Y-123527999D01*
X139319000Y-60452000D02*
X120777000Y-60452000D01*
X120142000Y-59817000D02*
X120142000Y-58420000D01*
X143764000Y-64897000D02*
X139319000Y-60452000D01*
X120777000Y-60452000D02*
X120142000Y-59817000D01*
X143764000Y-65278000D02*
X143764000Y-64897000D01*
G04 #@! TD*
M02*
