M48
;DRILL file {KiCad (6.0.0-rc1-dev-113-g3868f21)} date Tuesday, September 11, 2018 at 06:01:53 PM
;FORMAT={-:-/ absolute / inch / decimal}
FMAT,2
INCH,TZ
T1C0.0354
T2C0.0394
T3C0.0591
%
G90
G05
M72
T1
X4.755Y-3.72
X4.855Y-3.72
X4.765Y-5.22
X4.865Y-5.22
X5.51Y-2.97
X5.61Y-2.97
X4.005Y-4.47
X4.105Y-4.47
X5.51Y-4.465
X5.61Y-4.465
X5.505Y-5.975
X5.605Y-5.975
X4.015Y-5.22
X4.115Y-5.22
X4.01Y-2.97
X4.11Y-2.97
X4.755Y-2.97
X4.855Y-2.97
X4.015Y-3.72
X4.115Y-3.72
X4.765Y-4.465
X4.865Y-4.465
X4.765Y-5.975
X4.865Y-5.975
X5.51Y-3.72
X5.61Y-3.72
X5.51Y-5.22
X5.61Y-5.22
X4.015Y-5.975
X4.115Y-5.975
T2
X5.93Y-4.07
X5.93Y-4.17
X5.93Y-4.27
X5.93Y-4.37
X5.93Y-4.47
X4.53Y-2.3
X4.63Y-2.3
X4.73Y-2.3
X4.83Y-2.3
X4.93Y-2.3
X5.03Y-2.3
T3
X3.91Y-4.92
X4.16Y-4.82
X5.41Y-3.42
X5.66Y-3.32
X5.41Y-4.92
X5.66Y-4.82
X4.66Y-5.67
X4.91Y-5.57
X4.66Y-4.17
X4.91Y-4.07
X4.66Y-4.92
X4.91Y-4.82
X5.41Y-4.17
X5.66Y-4.07
X5.41Y-5.67
X5.66Y-5.57
X3.91Y-5.67
X4.16Y-5.57
X4.66Y-2.67
X4.91Y-2.57
X5.41Y-2.67
X5.66Y-2.57
X4.66Y-3.42
X4.91Y-3.32
X3.91Y-4.17
X4.16Y-4.07
X3.91Y-2.67
X4.16Y-2.57
X3.91Y-3.42
X4.16Y-3.32
T0
M30
