M48
;DRILL file {KiCad (6.0.0-rc1-dev-113-g3868f21)} date Tuesday, September 11, 2018 at 06:01:53 PM
;FORMAT={-:-/ absolute / inch / decimal}
FMAT,2
INCH,TZ
T1C0.0669
T2C0.0984
T3C0.1575
%
G90
G05
M72
T1
X3.86Y-5.02
X4.26Y-5.02
X5.36Y-3.52
X5.76Y-3.52
X5.36Y-5.02
X5.76Y-5.02
X4.61Y-5.77
X5.01Y-5.77
X4.61Y-4.27
X5.01Y-4.27
X4.61Y-5.02
X5.01Y-5.02
X5.36Y-4.27
X5.76Y-4.27
X5.36Y-5.77
X5.76Y-5.77
X3.86Y-5.77
X4.26Y-5.77
X4.61Y-2.77
X5.01Y-2.77
X5.36Y-2.77
X5.76Y-2.77
X4.61Y-3.52
X5.01Y-3.52
X3.86Y-4.27
X4.26Y-4.27
X3.86Y-2.77
X4.26Y-2.77
X3.86Y-3.52
X4.26Y-3.52
T2
X3.6811Y-6.251
X5.9449Y-2.314
X3.6811Y-2.314
X5.9449Y-6.251
T3
X4.06Y-4.27
X4.06Y-3.52
X4.06Y-5.02
X4.81Y-4.27
X4.81Y-5.02
X5.56Y-4.27
X4.06Y-5.77
X5.56Y-2.77
X4.81Y-3.52
X5.56Y-3.52
X5.56Y-5.02
X4.81Y-5.77
X5.56Y-5.77
X4.81Y-2.77
X4.06Y-2.77
T0
M30
